<?xml version="1.0" encoding="utf-8"?>
<!-- Generator: Adobe Illustrator 22.0.0, SVG Export Plug-In . SVG Version: 6.00 Build 0)  -->
<svg version="1.1" id="Layer_1" xmlns="http://www.w3.org/2000/svg" xmlns:xlink="http://www.w3.org/1999/xlink" x="0px" y="0px"
	 viewBox="0 0 16 16" style="enable-background:new 0 0 16 16;" xml:space="preserve">
<style type="text/css">
	.st0{fill:#FFFFFF;}
</style>
<path class="st0" d="M11,8c0,1.7-1.3,3-3,3S5,9.7,5,8s1.3-3,3-3S11,6.3,11,8z"/>
<path class="st0" d="M14,14V4.5L9.5,0H4C2.9,0,2,0.9,2,2v12c0,1.1,0.9,2,2,2h8C13.1,16,14,15.1,14,14z M9.5,3c0,0.8,0.7,1.5,1.5,1.5
	h2v9.3c0,0-1-1.8-5-1.8s-5,1.8-5,1.8V2c0-0.6,0.4-1,1-1h5.5V3z"/>
</svg>
