<?xml version="1.0" encoding="utf-8"?>
<!-- Generator: Adobe Illustrator 22.0.0, SVG Export Plug-In . SVG Version: 6.00 Build 0)  -->
<svg version="1.1" id="Layer_1" xmlns="http://www.w3.org/2000/svg" xmlns:xlink="http://www.w3.org/1999/xlink" x="0px" y="0px"
	 viewBox="0 0 637.5 600.1" style="enable-background:new 0 0 637.5 600.1;" xml:space="preserve">
<style type="text/css">
	.st0{fill:#FFFFFF;}
	.st1{fill:#999999;}
	.st2{fill:url(#SVGID_1_);}
	.st3{fill:#50AAC4;}
	.st4{fill:#2B2B2B;}
</style>
<g>
	<polygon class="st1" points="591.7,279.6 591.7,279.6 591.7,279.6 	"/>
	<polygon class="st1" points="584,266.3 584.2,266.4 584,266.5 	"/>
	<polygon class="st1" points="591.5,253.2 591.8,253 591.8,253.4 	"/>
	<polygon class="st1" points="583.9,239.7 584.4,240 583.9,240.3 	"/>
	<polygon class="st1" points="606.9,253.1 607,253.2 606.9,253.2 	"/>
	<polygon class="st1" points="591.3,226.7 591.8,226.4 591.8,227 	"/>
	<polygon class="st1" points="583.8,213.1 584.5,213.5 583.8,213.9 	"/>
	<polygon class="st1" points="614.5,240 614.6,239.9 614.6,240.1 	"/>
	<polygon class="st1" points="606.8,226.6 607.1,226.7 606.8,226.9 	"/>
	<polygon class="st1" points="591.2,200.3 591.9,199.9 591.9,200.7 	"/>
	<polygon class="st1" points="583.8,186.6 584.6,187.1 583.8,187.5 	"/>
	<polygon class="st1" points="629.8,240 629.8,240 629.8,240 	"/>
	<polygon class="st1" points="614.4,213.5 614.6,213.4 614.6,213.6 	"/>
	<polygon class="st1" points="606.8,200.1 607.1,200.3 606.8,200.5 	"/>
	<polygon class="st1" points="591.2,173.9 591.9,173.5 591.9,174.2 	"/>
	<polygon class="st1" points="583.8,160.2 584.5,160.6 583.8,161.1 	"/>
	<polygon class="st1" points="637.5,226.7 637.5,226.7 637.5,226.7 	"/>
	<polygon class="st1" points="629.8,213.5 629.8,213.5 629.8,213.5 	"/>
	<polygon class="st1" points="614.5,187.1 614.6,187 614.6,187.1 	"/>
	<polygon class="st1" points="606.9,173.7 607.1,173.9 606.9,174 	"/>
	<polygon class="st1" points="591.4,147.4 591.8,147.2 591.8,147.7 	"/>
	<polygon class="st1" points="583.9,133.9 584.3,134.2 583.9,134.4 	"/>
	<polygon class="st1" points="606.9,147.4 607,147.4 606.9,147.5 	"/>
	<polygon class="st1" points="591.7,121 591.7,121 591.7,121 	"/>
	<g>
		<polygon class="st1" points="417.4,398.6 417.5,398.6 417.4,398.7 		"/>
		<polygon class="st1" points="402,398.6 402.3,398.4 402.3,398.8 		"/>
		<polygon class="st1" points="424.7,385.4 425.3,385.1 425.3,385.7 		"/>
		<polygon class="st1" points="394.1,384.6 395.4,385.4 394.1,386.2 		"/>
		<polygon class="st1" points="379.2,411.8 379.3,411.8 379.3,411.9 		"/>
		<polygon class="st1" points="416.9,371.3 418.5,372.2 416.9,373.1 		"/>
		<polygon class="st1" points="400.8,372.2 402.9,371 402.9,373.4 		"/>
		<polygon class="st1" points="378.1,385.4 379.9,384.4 379.9,386.4 		"/>
		<polygon class="st1" points="371.3,398 372.4,398.6 371.3,399.3 		"/>
		<polygon class="st1" points="440.3,385.3 440.5,385.4 440.3,385.5 		"/>
		<polygon class="st1" points="439.8,358 441.4,359 439.8,359.9 		"/>
		<polygon class="st1" points="423.5,359 425.9,357.6 425.9,360.3 		"/>
		<polygon class="st1" points="393.4,356.9 397,359 393.4,361 		"/>
		<polygon class="st1" points="376.5,359 380.7,356.5 380.7,361.4 		"/>
		<polygon class="st1" points="370.6,370.3 373.8,372.2 370.6,374 		"/>
		<polygon class="st1" points="355.1,398.6 357,397.5 357,399.7 		"/>
		<polygon class="st1" points="348.3,411 349.7,411.8 348.3,412.7 		"/>
		<polygon class="st1" points="356.2,425.1 356.5,424.9 356.5,425.2 		"/>
		<polygon class="st1" points="447.7,372.2 448.2,371.9 448.2,372.5 		"/>
		<polygon class="st1" points="446.6,345.7 448.7,344.5 448.7,346.9 		"/>
		<polygon class="st1" points="416.2,343.5 420.1,345.7 416.2,348 		"/>
		<polygon class="st1" points="399,345.7 403.8,343 403.8,348.5 		"/>
		<polygon class="st1" points="369.6,342.2 375.7,345.7 369.6,349.3 		"/>
		<polygon class="st1" points="353.8,372.2 357.7,369.9 357.7,374.4 		"/>
		<polygon class="st1" points="347.7,383.5 350.9,385.4 347.7,387.3 		"/>
		<polygon class="st1" points="331.9,411.8 334.3,410.5 334.3,413.2 		"/>
		<polygon class="st1" points="463.3,372.2 463.3,372.2 463.3,372.2 		"/>
		<polygon class="st1" points="439.2,330.5 442.7,332.5 439.2,334.5 		"/>
		<polygon class="st1" points="422,332.5 426.6,329.9 426.6,335.1 		"/>
		<polygon class="st1" points="392.4,328.8 398.8,332.5 392.4,336.2 		"/>
		<polygon class="st1" points="374.6,332.5 381.6,328.5 381.6,336.6 		"/>
		<polygon class="st1" points="351.8,345.7 358.7,341.8 358.7,349.7 		"/>
		<polygon class="st1" points="346.8,355.6 352.6,359 346.8,362.3 		"/>
		<polygon class="st1" points="330.6,385.4 334.9,382.9 334.9,387.9 		"/>
		<polygon class="st1" points="324.5,396.3 328.6,398.6 324.5,401 		"/>
		<polygon class="st1" points="325.1,423.8 327.3,425.1 325.1,426.3 		"/>
		<polygon class="st1" points="333,438.3 333.7,437.9 333.7,438.7 		"/>
		<polygon class="st1" points="470.7,359 471,358.8 471,359.1 		"/>
		<polygon class="st1" points="462.8,345 464.1,345.7 462.8,346.5 		"/>
		<polygon class="st1" points="462.4,317.7 465.1,319.3 462.4,320.9 		"/>
		<polygon class="st1" points="445.5,319.3 449.2,317.2 449.2,321.4 		"/>
		<polygon class="st1" points="415.4,315.8 421.5,319.3 415.4,322.8 		"/>
		<polygon class="st1" points="397.5,319.3 404.5,315.2 404.5,323.3 		"/>
		<polygon class="st1" points="368.8,314.4 377.3,319.3 368.8,324.2 		"/>
		<polygon class="st1" points="350.4,319.3 359.4,314.1 359.4,324.5 		"/>
		<polygon class="st1" points="346,327.7 354.3,332.5 346,337.4 		"/>
		<polygon class="st1" points="329,359 335.8,355 335.8,362.9 		"/>
		<polygon class="st1" points="323.8,368.6 329.9,372.2 323.8,375.7 		"/>
		<polygon class="st1" points="306.8,398.6 312.5,395.4 312.5,401.9 		"/>
		<polygon class="st1" points="301.1,408.6 306.6,411.8 301.1,415 		"/>
		<polygon class="st1" points="308.1,425.1 311.8,422.9 311.8,427.2 		"/>
		<polygon class="st1" points="325.7,451.2 326.2,451.5 325.7,451.8 		"/>
		<polygon class="st1" points="469.8,332.5 471.4,331.6 471.4,333.4 		"/>
		<polygon class="st1" points="469,306.1 471.9,304.4 471.9,307.7 		"/>
		<polygon class="st1" points="438.6,303.1 443.8,306.1 438.6,309 		"/>
		<polygon class="st1" points="420.9,306.1 427.2,302.4 427.2,309.7 		"/>
		<polygon class="st1" points="391.8,301.3 400.1,306.1 391.8,310.8 		"/>
		<polygon class="st1" points="373.3,306.1 382.3,300.9 382.3,311.2 		"/>
		<polygon class="st1" points="345.5,300.4 355.3,306.1 345.5,311.8 		"/>
		<polygon class="st1" points="327.4,332.5 336.5,327.2 336.5,337.8 		"/>
		<polygon class="st1" points="323,340.8 331.6,345.7 323,350.7 		"/>
		<polygon class="st1" points="305.5,372.2 313.1,367.8 313.1,376.6 		"/>
		<polygon class="st1" points="300.5,381.1 307.9,385.4 300.5,389.7 		"/>
		<polygon class="st1" points="282.7,411.8 290.2,407.5 290.2,416.2 		"/>
		<polygon class="st1" points="301.8,436.3 305.3,438.3 301.8,440.3 		"/>
		<polygon class="st1" points="309.4,451.5 311.2,450.5 311.2,452.5 		"/>
		<polygon class="st1" points="485.9,332.1 486.7,332.5 485.9,333 		"/>
		<polygon class="st1" points="461.9,290.5 465.9,292.8 461.9,295.2 		"/>
		<polygon class="st1" points="444.6,292.8 449.7,289.9 449.7,295.8 		"/>
		<polygon class="st1" points="415,288.5 422.5,292.8 415,297.2 		"/>
		<polygon class="st1" points="396.5,292.8 405,288 405,297.7 		"/>
		<polygon class="st1" points="368.4,287.2 378.1,292.8 368.4,298.5 		"/>
		<polygon class="st1" points="349.7,292.8 359.7,287 359.7,298.7 		"/>
		<polygon class="st1" points="326.6,306.1 336.9,300.1 336.9,312.1 		"/>
		<polygon class="st1" points="322.5,313.4 332.6,319.3 322.5,325.2 		"/>
		<polygon class="st1" points="304.1,345.7 313.8,340.1 313.8,351.4 		"/>
		<polygon class="st1" points="299.8,353.5 309.3,359 299.8,364.4 		"/>
		<polygon class="st1" points="281.5,385.4 290.8,380 290.8,390.8 		"/>
		<polygon class="st1" points="276.9,393.1 286.5,398.6 276.9,404.2 		"/>
		<polygon class="st1" points="277.5,420.7 285.1,425.1 277.5,429.5 		"/>
		<polygon class="st1" points="284.1,438.3 289.5,435.2 289.5,441.4 		"/>
		<polygon class="st1" points="302.4,463.8 304,464.7 302.4,465.6 		"/>
		<polygon class="st1" points="310.4,478 310.7,477.8 310.7,478.1 		"/>
		<polygon class="st1" points="493.1,319.3 494.1,318.7 494.1,319.9 		"/>
		<polygon class="st1" points="485.5,304.9 487.5,306.1 485.5,307.2 		"/>
		<polygon class="st1" points="485.1,277.9 488.2,279.6 485.1,281.4 		"/>
		<polygon class="st1" points="468.2,279.6 472.2,277.3 472.2,282 		"/>
		<polygon class="st1" points="438.3,276 444.5,279.6 438.3,283.3 		"/>
		<polygon class="st1" points="420.1,279.6 427.6,275.3 427.6,283.9 		"/>
		<polygon class="st1" points="391.5,274.4 400.6,279.6 391.5,284.9 		"/>
		<polygon class="st1" points="372.8,279.6 382.5,274 382.5,285.3 		"/>
		<polygon class="st1" points="345.3,273.7 355.7,279.6 345.3,285.6 		"/>
		<polygon class="st1" points="326.5,279.6 337,273.6 337,285.7 		"/>
		<polygon class="st1" points="322.3,286.7 333,292.8 322.3,299 		"/>
		<polygon class="st1" points="303.4,319.3 314.2,313.1 314.2,325.5 		"/>
		<polygon class="st1" points="299.3,326.3 310.2,332.5 299.3,338.8 		"/>
		<polygon class="st1" points="280.3,359 291.4,352.5 291.4,365.4 		"/>
		<polygon class="st1" points="276.3,365.6 287.6,372.2 276.3,378.7 		"/>
		<polygon class="st1" points="257.1,398.6 268.6,391.9 268.6,405.3 		"/>
		<polygon class="st1" points="253.2,405.1 265,411.8 253.2,418.6 		"/>
		<polygon class="st1" points="258.3,425.1 268,419.5 268,430.6 		"/>
		<polygon class="st1" points="278.4,448.6 283.4,451.5 278.4,454.4 		"/>
		<polygon class="st1" points="285.7,464.7 288.7,463 288.7,466.5 		"/>
		<polygon class="st1" points="302.9,491.1 303.1,491.2 302.9,491.3 		"/>
		<polygon class="st1" points="508.9,319.1 509.3,319.3 508.9,319.5 		"/>
		<polygon class="st1" points="492.4,292.8 494.5,291.7 494.5,294 		"/>
		<polygon class="st1" points="491.7,266.4 494.8,264.6 494.8,268.2 		"/>
		<polygon class="st1" points="461.5,263.4 466.7,266.4 461.5,269.4 		"/>
		<polygon class="st1" points="443.9,266.4 450,262.9 450,270 		"/>
		<polygon class="st1" points="414.7,261.6 423,266.4 414.7,271.2 		"/>
		<polygon class="st1" points="396.1,266.4 405.2,261.2 405.2,271.7 		"/>
		<polygon class="st1" points="368.3,260.6 378.3,266.4 368.3,272.2 		"/>
		<polygon class="st1" points="349.6,266.4 359.8,260.5 359.8,272.3 		"/>
		<polygon class="st1" points="322.4,260.4 332.8,266.4 322.4,272.4 		"/>
		<polygon class="st1" points="303.3,292.8 314.2,286.5 314.2,299.2 		"/>
		<polygon class="st1" points="299.2,299.6 310.4,306.1 299.2,312.5 		"/>
		<polygon class="st1" points="279.8,332.5 291.6,325.7 291.6,339.3 		"/>
		<polygon class="st1" points="276,338.6 288.3,345.7 276,352.8 		"/>
		<polygon class="st1" points="256.1,372.2 269.1,364.7 269.1,379.7 		"/>
		<polygon class="st1" points="252.8,377.8 266,385.4 252.8,393 		"/>
		<polygon class="st1" points="232.8,411.8 246.4,404 246.4,419.7 		"/>
		<polygon class="st1" points="254,432.9 263.4,438.3 254,443.7 		"/>
		<polygon class="st1" points="260.2,451.5 267.1,447.5 267.1,455.5 		"/>
		<polygon class="st1" points="279.2,476.4 281.9,478 279.2,479.5 		"/>
		<polygon class="st1" points="286.9,491.2 288.1,490.5 288.1,491.9 		"/>
		<polygon class="st1" points="516.3,306.1 516.9,305.7 516.9,306.4 		"/>
		<polygon class="st1" points="508.6,292.1 510,292.8 508.6,293.6 		"/>
		<polygon class="st1" points="484.8,250.8 488.9,253.2 484.8,255.6 		"/>
		<polygon class="st1" points="467.5,253.2 472.6,250.2 472.6,256.2 		"/>
		<polygon class="st1" points="438,249.1 445.1,253.2 438,257.3 		"/>
		<polygon class="st1" points="419.7,253.2 427.8,248.5 427.8,257.9 		"/>
		<polygon class="st1" points="391.5,247.8 400.7,253.2 391.5,258.5 		"/>
		<polygon class="st1" points="372.8,253.2 382.5,247.6 382.5,258.8 		"/>
		<polygon class="st1" points="345.5,247.6 355.2,253.2 345.5,258.8 		"/>
		<polygon class="st1" points="327.1,253.2 336.7,247.6 336.7,258.8 		"/>
		<polygon class="st1" points="303.7,266.4 314,260.5 314,272.3 		"/>
		<polygon class="st1" points="299.4,273.4 310.1,279.6 299.4,285.8 		"/>
		<polygon class="st1" points="279.9,306.1 291.6,299.3 291.6,312.8 		"/>
		<polygon class="st1" points="276,312.3 288.2,319.3 276,326.3 		"/>
		<polygon class="st1" points="255.7,345.7 269.3,337.9 269.3,353.6 		"/>
		<polygon class="st1" points="252.4,350.8 266.6,359 252.4,367.1 		"/>
		<polygon class="st1" points="232,385.4 246.8,376.9 246.8,393.9 		"/>
		<polygon class="st1" points="229.2,389.8 244.4,398.6 229.2,407.4 		"/>
		<polygon class="st1" points="229.7,417.2 243.3,425.1 229.7,432.9 		"/>
		<polygon class="st1" points="234.4,438.3 245.6,431.8 245.6,444.8 		"/>
		<polygon class="st1" points="255,461.1 261.4,464.7 255,468.4 		"/>
		<polygon class="st1" points="262,478 266.2,475.6 266.2,480.3 		"/>
		<polygon class="st1" points="279.7,503.8 280.8,504.4 279.7,505 		"/>
		<polygon class="st1" points="287.7,517.6 287.7,517.6 287.7,517.6 		"/>
		<polygon class="st1" points="531.9,306 532.1,306.1 531.9,306.2 		"/>
		<polygon class="st1" points="515.7,279.6 517.2,278.7 517.2,280.5 		"/>
		<polygon class="st1" points="508.3,265.1 510.6,266.4 508.3,267.8 		"/>
		<polygon class="st1" points="508,238.1 511.2,240 508,241.8 		"/>
		<polygon class="st1" points="491.1,240 495.1,237.6 495.1,242.3 		"/>
		<polygon class="st1" points="461.3,236.6 467.2,240 461.3,243.4 		"/>
		<polygon class="st1" points="443.5,240 450.2,236.1 450.2,243.8 		"/>
		<polygon class="st1" points="414.7,235.2 422.9,240 414.7,244.7 		"/>
		<polygon class="st1" points="396.4,240 405.1,235 405.1,245 		"/>
		<polygon class="st1" points="368.7,234.8 377.6,240 368.7,245.1 		"/>
		<polygon class="st1" points="350.5,240 359.3,234.8 359.3,245.1 		"/>
		<polygon class="st1" points="323,235 331.6,240 323,244.9 		"/>
		<polygon class="st1" points="305.1,240 313.3,235.2 313.3,244.7 		"/>
		<polygon class="st1" points="299.9,247.8 309.1,253.2 299.9,258.5 		"/>
		<polygon class="st1" points="280.4,279.6 291.3,273.3 291.3,285.9 		"/>
		<polygon class="st1" points="276.2,286.2 287.7,292.8 276.2,299.5 		"/>
		<polygon class="st1" points="256.2,319.3 269.1,311.8 269.1,326.7 		"/>
		<polygon class="st1" points="252.6,324.5 266.4,332.5 252.6,340.5 		"/>
		<polygon class="st1" points="231.6,359 247,350.1 247,367.9 		"/>
		<polygon class="st1" points="228.9,362.9 244.9,372.2 228.9,381.4 		"/>
		<polygon class="st1" points="208,398.6 224.5,389.1 224.5,408.1 		"/>
		<polygon class="st1" points="205.8,402.2 222.4,411.8 205.8,421.4 		"/>
		<polygon class="st1" points="208.8,425.1 224.1,416.3 224.1,433.9 		"/>
		<polygon class="st1" points="230.7,445.3 241.4,451.5 230.7,457.7 		"/>
		<polygon class="st1" points="236.5,464.7 244.6,460 244.6,469.4 		"/>
		<polygon class="st1" points="255.9,489.1 259.6,491.2 255.9,493.3 		"/>
		<polygon class="st1" points="263.4,504.4 265.5,503.2 265.5,505.6 		"/>
		<polygon class="st1" points="539.3,292.8 539.7,292.6 539.7,293.1 		"/>
		<polygon class="st1" points="531.6,279.1 532.6,279.6 531.6,280.2 		"/>
		<polygon class="st1" points="515,253.2 517.5,251.7 517.5,254.6 		"/>
		<polygon class="st1" points="514.6,226.7 517.7,224.9 517.7,228.6 		"/>
		<polygon class="st1" points="484.6,224.1 489.3,226.7 484.6,229.4 		"/>
		<polygon class="st1" points="467.3,226.7 472.7,223.6 472.7,229.9 		"/>
		<polygon class="st1" points="438.1,222.8 444.9,226.7 438.1,230.7 		"/>
		<polygon class="st1" points="420.2,226.7 427.5,222.5 427.5,231 		"/>
		<polygon class="st1" points="392,222.3 399.7,226.7 392,231.2 		"/>
		<polygon class="st1" points="374,226.7 381.9,222.2 381.9,231.3 		"/>
		<polygon class="st1" points="346.2,222.4 353.8,226.7 346.2,231.1 		"/>
		<polygon class="st1" points="328.6,226.7 336,222.5 336,231 		"/>
		<polygon class="st1" points="300.7,222.8 307.5,226.7 300.7,230.7 		"/>
		<polygon class="st1" points="281.6,253.2 290.7,248 290.7,258.4 		"/>
		<polygon class="st1" points="276.7,260.5 286.8,266.4 276.7,272.3 		"/>
		<polygon class="st1" points="257,292.8 268.7,286.1 268.7,299.6 		"/>
		<polygon class="st1" points="253,298.8 265.5,306.1 253,313.3 		"/>
		<polygon class="st1" points="232.2,332.5 246.7,324.1 246.7,340.9 		"/>
		<polygon class="st1" points="229.1,336.7 244.6,345.7 229.1,354.7 		"/>
		<polygon class="st1" points="207.6,372.2 224.7,362.3 224.7,382 		"/>
		<polygon class="st1" points="205.6,375.5 222.8,385.4 205.6,395.3 		"/>
		<polygon class="st1" points="184.5,411.8 201.9,401.8 201.9,421.9 		"/>
		<polygon class="st1" points="206.5,429.8 221.1,438.3 206.5,446.7 		"/>
		<polygon class="st1" points="210.7,451.5 223.1,444.3 223.1,458.7 		"/>
		<polygon class="st1" points="231.8,473.7 239.1,478 231.8,482.2 		"/>
		<polygon class="st1" points="238.5,491.2 243.6,488.2 243.6,494.1 		"/>
		<polygon class="st1" points="256.6,516.7 258.3,517.6 256.6,518.6 		"/>
		<polygon class="st1" points="264.5,530.8 264.9,530.6 264.9,531.1 		"/>
		<polygon class="st1" points="554.8,292.7 555,292.8 554.8,293 		"/>
		<polygon class="st1" points="538.8,266.4 540,265.7 540,267.1 		"/>
		<polygon class="st1" points="531.3,252.1 533.2,253.2 531.3,254.2 		"/>
		<polygon class="st1" points="507.9,211.4 511.4,213.5 507.9,215.6 		"/>
		<polygon class="st1" points="491,213.5 495.2,211.1 495.2,215.9 		"/>
		<polygon class="st1" points="461.4,210.4 466.9,213.5 461.4,216.7 		"/>
		<polygon class="st1" points="444,213.5 450,210.1 450,216.9 		"/>
		<polygon class="st1" points="415.2,209.7 421.9,213.5 415.2,217.4 		"/>
		<polygon class="st1" points="397.7,213.5 404.4,209.6 404.4,217.4 		"/>
		<polygon class="st1" points="369.4,209.7 376.1,213.5 369.4,217.4 		"/>
		<polygon class="st1" points="352.1,213.5 358.5,209.8 358.5,217.2 		"/>
		<polygon class="st1" points="323.9,210.1 329.9,213.5 323.9,217 		"/>
		<polygon class="st1" points="306.8,213.5 312.5,210.3 312.5,216.8 		"/>
		<polygon class="st1" points="283.3,226.7 289.9,222.9 289.9,230.6 		"/>
		<polygon class="st1" points="277.4,235.4 285.3,240 277.4,244.5 		"/>
		<polygon class="st1" points="258,266.4 268.2,260.6 268.2,272.3 		"/>
		<polygon class="st1" points="253.5,273.2 264.5,279.6 253.5,286 		"/>
		<polygon class="st1" points="233.3,306.1 246.2,298.6 246.2,313.5 		"/>
		<polygon class="st1" points="229.6,311.2 243.5,319.3 229.6,327.3 		"/>
		<polygon class="st1" points="208.3,345.7 224.4,336.4 224.4,355 		"/>
		<polygon class="st1" points="205.7,349.1 222.7,359 205.7,368.8 		"/>
		<polygon class="st1" points="184.3,385.4 202,375.2 202,395.6 		"/>
		<polygon class="st1" points="182.5,388.3 200.4,398.6 182.5,408.9 		"/>
		<polygon class="st1" points="182.8,415.3 199.7,425.1 182.8,434.8 		"/>
		<polygon class="st1" points="185.8,438.3 201.2,429.4 201.2,447.2 		"/>
		<polygon class="st1" points="207.6,458.2 218.9,464.7 207.6,471.2 		"/>
		<polygon class="st1" points="213.1,478 221.9,472.8 221.9,483.1 		"/>
		<polygon class="st1" points="232.7,501.7 237.4,504.4 232.7,507.1 		"/>
		<polygon class="st1" points="240.1,517.6 242.8,516 242.8,519.2 		"/>
		<polygon class="st1" points="257.2,544.1 257.2,544.1 257.2,544.1 		"/>
		<polygon class="st1" points="562.2,279.6 562.6,279.4 562.6,279.8 		"/>
		<polygon class="st1" points="554.6,266 555.4,266.4 554.6,266.8 		"/>
		<polygon class="st1" points="538.3,240 540.2,238.9 540.2,241 		"/>
		<polygon class="st1" points="531.1,225.3 533.6,226.7 531.1,228.2 		"/>
		<polygon class="st1" points="531.1,198.8 533.7,200.3 531.1,201.8 		"/>
		<polygon class="st1" points="514.6,200.3 517.7,198.5 517.7,202.1 		"/>
		<polygon class="st1" points="484.8,197.9 488.9,200.3 484.8,202.7 		"/>
		<polygon class="st1" points="467.8,200.3 472.4,197.6 472.4,203 		"/>
		<polygon class="st1" points="438.6,197.2 443.9,200.3 438.6,203.4 		"/>
		<polygon class="st1" points="421.4,200.3 426.9,197.1 426.9,203.5 		"/>
		<polygon class="st1" points="392.7,197.1 398.3,200.3 392.7,203.5 		"/>
		<polygon class="st1" points="375.6,200.3 381.1,197.1 381.1,203.5 		"/>
		<polygon class="st1" points="347.1,197.3 352.2,200.3 347.1,203.3 		"/>
		<polygon class="st1" points="330.2,200.3 335.1,197.5 335.1,203.1 		"/>
		<polygon class="st1" points="301.5,197.7 305.9,200.3 301.5,202.9 		"/>
		<polygon class="st1" points="284.7,200.3 289.2,197.7 289.2,202.9 		"/>
		<polygon class="st1" points="278.2,210.3 283.7,213.5 278.2,216.7 		"/>
		<polygon class="st1" points="259.6,240 267.4,235.5 267.4,244.4 		"/>
		<polygon class="st1" points="254.2,248.1 263.1,253.2 254.2,258.3 		"/>
		<polygon class="st1" points="234.5,279.6 245.6,273.2 245.6,286.1 		"/>
		<polygon class="st1" points="230.3,285.9 242.3,292.8 230.3,299.8 		"/>
		<polygon class="st1" points="209.6,319.3 223.7,311.1 223.7,327.5 		"/>
		<polygon class="st1" points="206.3,323.7 221.5,332.5 206.3,341.3 		"/>
		<polygon class="st1" points="184.6,359 201.8,349 201.8,368.9 		"/>
		<polygon class="st1" points="182.5,361.9 200.3,372.2 182.5,382.4 		"/>
		<polygon class="st1" points="161.3,398.6 179.1,388.3 179.1,408.9 		"/>
		<polygon class="st1" points="159.7,401.7 177.2,411.8 159.7,421.9 		"/>
		<polygon class="st1" points="161.9,425.1 178.8,415.3 178.8,434.9 		"/>
		<polygon class="st1" points="183.7,443.3 197.9,451.5 183.7,459.7 		"/>
		<polygon class="st1" points="188,464.7 200.1,457.8 200.1,471.7 		"/>
		<polygon class="st1" points="208.8,486.7 216.5,491.2 208.8,495.6 		"/>
		<polygon class="st1" points="215.1,504.4 220.9,501 220.9,507.8 		"/>
		<polygon class="st1" points="233.6,529.7 235.6,530.8 233.6,532 		"/>
		<polygon class="st1" points="241.5,544.1 242.1,543.7 242.1,544.4 		"/>
		<polygon class="st1" points="585.4,292.8 585.4,292.8 585.4,292.8 		"/>
		<polygon class="st1" points="577.7,279.5 577.9,279.6 577.7,279.7 		"/>
		<polygon class="st1" points="561.9,253.2 562.8,252.6 562.8,253.7 		"/>
		<polygon class="st1" points="554.4,239.2 555.8,240 554.4,240.8 		"/>
		<polygon class="st1" points="538.1,213.5 540.4,212.2 540.4,214.8 		"/>
		<polygon class="st1" points="538,187.1 540.4,185.7 540.4,188.4 		"/>
		<polygon class="st1" points="508,185.3 511.2,187.1 508,188.9 		"/>
		<polygon class="st1" points="491.5,187.1 495,185.1 495,189.1 		"/>
		<polygon class="st1" points="461.9,184.6 466.1,187.1 461.9,189.5 		"/>
		<polygon class="st1" points="445,187.1 449.5,184.5 449.5,189.6 		"/>
		<polygon class="st1" points="415.9,184.4 420.6,187.1 415.9,189.8 		"/>
		<polygon class="st1" points="399.1,187.1 403.7,184.4 403.7,189.7 		"/>
		<polygon class="st1" points="370.2,184.5 374.6,187.1 370.2,189.6 		"/>
		<polygon class="st1" points="353.6,187.1 357.8,184.6 357.8,189.5 		"/>
		<polygon class="st1" points="324.6,184.8 328.4,187.1 324.6,189.3 		"/>
		<polygon class="st1" points="308.2,187.1 311.8,185 311.8,189.2 		"/>
		<polygon class="st1" points="278.8,184.9 282.5,187.1 278.8,189.2 		"/>
		<polygon class="st1" points="261.1,213.5 266.6,210.3 266.6,216.7 		"/>
		<polygon class="st1" points="255,222.9 261.5,226.7 255,230.5 		"/>
		<polygon class="st1" points="236,253.2 244.8,248.1 244.8,258.3 		"/>
		<polygon class="st1" points="230.9,260.6 240.9,266.4 230.9,272.2 		"/>
		<polygon class="st1" points="211.1,292.8 222.9,286 222.9,299.7 		"/>
		<polygon class="st1" points="207.1,298.7 219.8,306.1 207.1,313.4 		"/>
		<polygon class="st1" points="186,332.5 201.1,323.8 201.1,341.2 		"/>
		<polygon class="st1" points="183.1,336.4 199.3,345.7 183.1,355.1 		"/>
		<polygon class="st1" points="161.4,372.2 179.1,362 179.1,382.4 		"/>
		<polygon class="st1" points="159.7,375.2 177.3,385.4 159.7,395.6 		"/>
		<polygon class="st1" points="138.9,411.8 156,402 156,421.7 		"/>
		<polygon class="st1" points="160.3,429.3 176,438.3 160.3,447.3 		"/>
		<polygon class="st1" points="163.7,451.5 177.9,443.3 177.9,459.7 		"/>
		<polygon class="st1" points="185.1,472.1 195.2,478 185.1,483.8 		"/>
		<polygon class="st1" points="190.5,491.2 198.9,486.4 198.9,496 		"/>
		<polygon class="st1" points="209.8,514.9 214.5,517.6 209.8,520.3 		"/>
		<polygon class="st1" points="217.1,530.8 219.9,529.2 219.9,532.5 		"/>
		<polygon class="st1" points="234.2,557.2 234.3,557.3 234.2,557.4 		"/>
		<polygon class="st1" points="585.1,266.4 585.5,266.2 585.5,266.6 		"/>
		<polygon class="st1" points="577.5,252.8 578.2,253.2 577.5,253.5 		"/>
		<polygon class="st1" points="561.5,226.7 563,225.9 563,227.6 		"/>
		<polygon class="st1" points="554.3,212.5 556,213.5 554.3,214.5 		"/>
		<polygon class="st1" points="531.2,172.5 533.6,173.9 531.2,175.2 		"/>
		<polygon class="st1" points="514.9,173.9 517.6,172.3 517.6,175.4 		"/>
		<polygon class="st1" points="485.1,172 488.3,173.9 485.1,175.7 		"/>
		<polygon class="st1" points="468.6,173.9 472,171.9 472,175.8 		"/>
		<polygon class="st1" points="439.1,171.7 442.8,173.9 439.1,176 		"/>
		<polygon class="st1" points="422.6,173.9 426.3,171.7 426.3,176 		"/>
		<polygon class="st1" points="393.3,171.7 397,173.9 393.3,176 		"/>
		<polygon class="st1" points="376.9,173.9 380.5,171.8 380.5,175.9 		"/>
		<polygon class="st1" points="347.7,171.9 351,173.9 347.7,175.8 		"/>
		<polygon class="st1" points="331.4,173.9 334.5,172.1 334.5,175.6 		"/>
		<polygon class="st1" points="302,172.2 304.9,173.9 302,175.5 		"/>
		<polygon class="st1" points="285.8,173.9 288.7,172.2 288.7,175.5 		"/>
		<polygon class="st1" points="262.2,187.1 266.1,184.8 266.1,189.3 		"/>
		<polygon class="st1" points="255.6,197.6 260.2,200.3 255.6,203 		"/>
		<polygon class="st1" points="237.5,226.7 244.1,223 244.1,230.5 		"/>
		<polygon class="st1" points="231.8,235.6 239.3,240 231.8,244.3 		"/>
		<polygon class="st1" points="212.5,266.4 222.2,260.8 222.2,272 		"/>
		<polygon class="st1" points="207.8,273.5 218.4,279.6 207.8,285.7 		"/>
		<polygon class="st1" points="187.9,306.1 200.2,299 200.2,313.2 		"/>
		<polygon class="st1" points="183.9,311.5 197.5,319.3 183.9,327.1 		"/>
		<polygon class="st1" points="162.6,345.7 178.5,336.6 178.5,354.9 		"/>
		<polygon class="st1" points="160,349.3 176.7,359 160,368.6 		"/>
		<polygon class="st1" points="138.9,385.4 156,375.5 156,395.3 		"/>
		<polygon class="st1" points="137,388.8 154,398.6 137,408.5 		"/>
		<polygon class="st1" points="137.3,415.9 153.3,425.1 137.3,434.3 		"/>
		<polygon class="st1" points="140.2,438.3 155.3,429.5 155.3,447 		"/>
		<polygon class="st1" points="161.5,457.7 173.7,464.7 161.5,471.8 		"/>
		<polygon class="st1" points="166.3,478 176.6,472 176.6,483.9 		"/>
		<polygon class="st1" points="186.2,500.4 193,504.4 186.2,508.3 		"/>
		<polygon class="st1" points="192.7,517.6 197.8,514.7 197.8,520.5 		"/>
		<polygon class="st1" points="210.8,543 212.5,544.1 210.8,545.1 		"/>
		<polygon class="st1" points="218.6,557.3 219.2,556.9 219.2,557.6 		"/>
		<polygon class="st1" points="584.9,240 585.6,239.5 585.6,240.4 		"/>
		<polygon class="st1" points="577.4,226.1 578.5,226.7 577.4,227.3 		"/>
		<polygon class="st1" points="561.4,200.3 563,199.3 563,201.2 		"/>
		<polygon class="st1" points="554.2,186 556.1,187.1 554.2,188.2 		"/>
		<polygon class="st1" points="554.3,159.7 556,160.6 554.3,161.6 		"/>
		<polygon class="st1" points="538.3,160.6 540.3,159.5 540.3,161.8 		"/>
		<polygon class="st1" points="508.3,159.3 510.6,160.6 508.3,162 		"/>
		<polygon class="st1" points="492.2,160.6 494.6,159.2 494.6,162 		"/>
		<polygon class="st1" points="462.4,159.1 465,160.6 462.4,162.2 		"/>
		<polygon class="st1" points="446.1,160.6 448.9,159 448.9,162.2 		"/>
		<polygon class="st1" points="416.5,159 419.3,160.6 416.5,162.2 		"/>
		<polygon class="st1" points="400.3,160.6 403.1,159 403.1,162.2 		"/>
		<polygon class="st1" points="370.8,159.1 373.4,160.6 370.8,162.2 		"/>
		<polygon class="st1" points="354.7,160.6 357.3,159.1 357.3,162.1 		"/>
		<polygon class="st1" points="325.1,159.3 327.4,160.6 325.1,162 		"/>
		<polygon class="st1" points="309.1,160.6 311.3,159.4 311.3,161.9 		"/>
		<polygon class="st1" points="279.2,159.2 281.7,160.6 279.2,162 		"/>
		<polygon class="st1" points="263,160.6 265.7,159.1 265.7,162.2 		"/>
		<polygon class="st1" points="256,171.9 259.4,173.9 256,175.8 		"/>
		<polygon class="st1" points="238.7,200.3 243.5,197.5 243.5,203.1 		"/>
		<polygon class="st1" points="232.4,210.3 238,213.5 232.4,216.7 		"/>
		<polygon class="st1" points="214.2,240 221.4,235.8 221.4,244.1 		"/>
		<polygon class="st1" points="208.7,248.5 216.8,253.2 208.7,257.9 		"/>
		<polygon class="st1" points="189.4,279.6 199.4,273.8 199.4,285.4 		"/>
		<polygon class="st1" points="184.8,286.6 195.7,292.8 184.8,299.1 		"/>
		<polygon class="st1" points="164.5,319.3 177.5,311.8 177.5,326.8 		"/>
		<polygon class="st1" points="160.8,324.3 175.1,332.5 160.8,340.7 		"/>
		<polygon class="st1" points="139.5,359 155.7,349.6 155.7,368.3 		"/>
		<polygon class="st1" points="137.1,362.6 153.7,372.2 137.1,381.8 		"/>
		<polygon class="st1" points="116.5,398.6 132.8,389.2 132.8,408 		"/>
		<polygon class="st1" points="114.5,402.8 130.2,411.8 114.5,420.9 		"/>
		<polygon class="st1" points="117.3,425.1 132.4,416.3 132.4,433.8 		"/>
		<polygon class="st1" points="138.3,443.9 151.4,451.5 138.3,459.1 		"/>
		<polygon class="st1" points="142.5,464.7 154.2,458 154.2,471.5 		"/>
		<polygon class="st1" points="162.8,486.3 171.1,491.2 162.8,496 		"/>
		<polygon class="st1" points="168.7,504.4 175.4,500.5 175.4,508.3 		"/>
		<polygon class="st1" points="187.3,528.9 190.7,530.8 187.3,532.8 		"/>
		<polygon class="st1" points="194.8,544.1 196.7,542.9 196.7,545.2 		"/>
		<polygon class="st1" points="211.4,570.5 211.4,570.5 211.4,570.5 		"/>
		<polygon class="st1" points="584.7,213.5 585.7,212.9 585.7,214.1 		"/>
		<polygon class="st1" points="577.3,199.6 578.6,200.3 577.3,201 		"/>
		<polygon class="st1" points="561.4,173.9 563,172.9 563,174.8 		"/>
		<polygon class="st1" points="561.6,147.4 562.9,146.7 562.9,148.2 		"/>
		<polygon class="st1" points="531.4,146.5 533.1,147.4 531.4,148.4 		"/>
		<polygon class="st1" points="515.5,147.4 517.3,146.4 517.3,148.4 		"/>
		<polygon class="st1" points="485.6,146.4 487.3,147.4 485.6,148.4 		"/>
		<polygon class="st1" points="469.7,147.4 471.5,146.4 471.5,148.5 		"/>
		<polygon class="st1" points="439.7,146.3 441.6,147.4 439.7,148.5 		"/>
		<polygon class="st1" points="423.9,147.4 425.7,146.3 425.7,148.5 		"/>
		<polygon class="st1" points="393.9,146.3 395.8,147.4 393.9,148.5 		"/>
		<polygon class="st1" points="378.1,147.4 379.9,146.4 379.9,148.4 		"/>
		<polygon class="st1" points="348.2,146.4 349.9,147.4 348.2,148.4 		"/>
		<polygon class="st1" points="332.4,147.4 334,146.5 334,148.3 		"/>
		<polygon class="st1" points="302.4,146.5 304,147.4 302.4,148.3 		"/>
		<polygon class="st1" points="286.5,147.4 288.3,146.4 288.3,148.4 		"/>
		<polygon class="st1" points="256.4,146 258.8,147.4 256.4,148.8 		"/>
		<polygon class="st1" points="239.5,173.9 243.1,171.8 243.1,175.9 		"/>
		<polygon class="st1" points="232.8,184.6 237.1,187.1 232.8,189.6 		"/>
		<polygon class="st1" points="215.3,213.5 220.8,210.4 220.8,216.7 		"/>
		<polygon class="st1" points="209.3,223.2 215.4,226.7 209.3,230.3 		"/>
		<polygon class="st1" points="191,253.2 198.6,248.8 198.6,257.6 		"/>
		<polygon class="st1" points="185.6,261.5 194.1,266.4 185.6,271.3 		"/>
		<polygon class="st1" points="166.5,292.8 176.5,287 176.5,298.7 		"/>
		<polygon class="st1" points="161.9,299.7 172.9,306.1 161.9,312.5 		"/>
		<polygon class="st1" points="141.2,332.5 154.8,324.7 154.8,340.4 		"/>
		<polygon class="st1" points="137.7,337.2 152.5,345.7 137.7,354.2 		"/>
		<polygon class="st1" points="116.7,372.2 132.7,362.9 132.7,381.4 		"/>
		<polygon class="st1" points="114.4,376.1 130.4,385.4 114.4,394.7 		"/>
		<polygon class="st1" points="94.6,411.8 109.4,403.2 109.4,420.4 		"/>
		<polygon class="st1" points="115.3,430.6 128.6,438.3 115.3,445.9 		"/>
		<polygon class="st1" points="119.3,451.5 131.4,444.5 131.4,458.5 		"/>
		<polygon class="st1" points="139.6,472.6 148.8,478 139.6,483.3 		"/>
		<polygon class="st1" points="145,491.2 152.9,486.6 152.9,495.8 		"/>
		<polygon class="st1" points="163.9,514.7 168.9,517.6 163.9,520.5 		"/>
		<polygon class="st1" points="171,530.8 174.3,528.9 174.3,532.7 		"/>
		<polygon class="st1" points="188.2,556.8 189,557.3 188.2,557.8 		"/>
		<polygon class="st1" points="196.1,570.5 196.1,570.5 196.1,570.5 		"/>
		<polygon class="st1" points="584.6,187.1 585.8,186.4 585.8,187.7 		"/>
		<polygon class="st1" points="577.3,173.1 578.6,173.9 577.3,174.6 		"/>
		<polygon class="st1" points="554.5,133.6 555.6,134.2 554.5,134.8 		"/>
		<polygon class="st1" points="538.8,134.2 540,133.5 540,134.9 		"/>
		<polygon class="st1" points="508.7,133.5 509.9,134.2 508.7,134.9 		"/>
		<polygon class="st1" points="493,134.2 494.2,133.5 494.2,134.9 		"/>
		<polygon class="st1" points="462.9,133.6 464,134.2 462.9,134.8 		"/>
		<polygon class="st1" points="447.3,134.2 448.3,133.6 448.3,134.8 		"/>
		<polygon class="st1" points="417.1,133.6 418.2,134.2 417.1,134.8 		"/>
		<polygon class="st1" points="401.5,134.2 402.5,133.6 402.5,134.8 		"/>
		<polygon class="st1" points="371.3,133.5 372.4,134.2 371.3,134.9 		"/>
		<polygon class="st1" points="355.6,134.2 356.8,133.5 356.8,134.9 		"/>
		<polygon class="st1" points="325.5,133.5 326.6,134.2 325.5,134.9 		"/>
		<polygon class="st1" points="309.8,134.2 311,133.5 311,134.9 		"/>
		<polygon class="st1" points="279.5,133.2 281.2,134.2 279.5,135.1 		"/>
		<polygon class="st1" points="263.5,134.2 265.5,133 265.5,135.3 		"/>
		<polygon class="st1" points="240.1,147.4 242.8,145.8 242.8,149 		"/>
		<polygon class="st1" points="233.2,158.8 236.4,160.6 233.2,162.5 		"/>
		<polygon class="st1" points="216.1,187.1 220.4,184.5 220.4,189.6 		"/>
		<polygon class="st1" points="209.7,197.5 214.6,200.3 209.7,203.1 		"/>
		<polygon class="st1" points="192.3,226.7 198,223.4 198,230.1 		"/>
		<polygon class="st1" points="186.4,236.4 192.6,240 186.4,243.5 		"/>
		<polygon class="st1" points="168.1,266.4 175.7,262 175.7,270.8 		"/>
		<polygon class="st1" points="162.7,274.7 171.2,279.6 162.7,284.5 		"/>
		<polygon class="st1" points="143.5,306.1 153.7,300.2 153.7,312 		"/>
		<polygon class="st1" points="138.8,312.6 150.3,319.3 138.8,325.9 		"/>
		<polygon class="st1" points="118,345.7 132.1,337.6 132.1,353.8 		"/>
		<polygon class="st1" points="114.8,350.3 129.7,359 114.8,367.6 		"/>
		<polygon class="st1" points="94.2,385.4 109.6,376.5 109.6,394.3 		"/>
		<polygon class="st1" points="91.8,389.9 106.9,398.6 91.8,407.3 		"/>
		<polygon class="st1" points="92.4,417.4 105.7,425.1 92.4,432.7 		"/>
		<polygon class="st1" points="96.4,438.3 108.5,431.3 108.5,445.3 		"/>
		<polygon class="st1" points="116.5,459.1 126.2,464.7 116.5,470.3 		"/>
		<polygon class="st1" points="121.9,478 130.1,473.2 130.1,482.7 		"/>
		<polygon class="st1" points="140.7,501 146.6,504.4 140.7,507.8 		"/>
		<polygon class="st1" points="147.2,517.6 151.8,515 151.8,520.2 		"/>
		<polygon class="st1" points="164.9,543 166.8,544.1 164.9,545.1 		"/>
		<polygon class="st1" points="172.7,557.3 173.4,556.8 173.4,557.7 		"/>
		<polygon class="st1" points="584.7,160.6 585.8,160 585.8,161.3 		"/>
		<polygon class="st1" points="577.4,146.8 578.4,147.4 577.4,148 		"/>
		<polygon class="st1" points="577.6,120.7 578.1,121 577.6,121.3 		"/>
		<polygon class="st1" points="562.1,121 562.7,120.6 562.7,121.3 		"/>
		<polygon class="st1" points="531.7,120.5 532.5,121 531.7,121.4 		"/>
		<polygon class="st1" points="516.2,121 516.9,120.5 516.9,121.4 		"/>
		<polygon class="st1" points="486,120.7 486.5,121 486,121.3 		"/>
		<polygon class="st1" points="470.5,121 471.1,120.7 471.1,121.3 		"/>
		<polygon class="st1" points="440.2,120.7 440.7,121 440.2,121.3 		"/>
		<polygon class="st1" points="424.8,121 425.3,120.7 425.3,121.3 		"/>
		<polygon class="st1" points="394.4,120.6 395,121 394.4,121.3 		"/>
		<polygon class="st1" points="378.8,121 379.5,120.6 379.5,121.4 		"/>
		<polygon class="st1" points="348.5,120.5 349.3,121 348.5,121.5 		"/>
		<polygon class="st1" points="332.9,121 333.8,120.4 333.8,121.5 		"/>
		<polygon class="st1" points="302.6,120.3 303.7,121 302.6,121.6 		"/>
		<polygon class="st1" points="286.7,121 288.2,120.1 288.2,121.8 		"/>
		<polygon class="st1" points="256.5,119.8 258.5,121 256.5,122.1 		"/>
		<polygon class="st1" points="240.3,121 242.7,119.6 242.7,122.3 		"/>
		<polygon class="st1" points="233.4,132.6 236.1,134.2 233.4,135.8 		"/>
		<polygon class="st1" points="216.6,160.6 220.2,158.6 220.2,162.7 		"/>
		<polygon class="st1" points="210,171.5 214,173.9 210,176.2 		"/>
		<polygon class="st1" points="192.9,200.3 197.7,197.5 197.7,203.1 		"/>
		<polygon class="st1" points="186.8,210.7 191.7,213.5 186.8,216.3 		"/>
		<polygon class="st1" points="169.6,240 175,236.8 175,243.1 		"/>
		<polygon class="st1" points="163.5,249.7 169.6,253.2 163.5,256.7 		"/>
		<polygon class="st1" points="145.3,279.6 152.8,275.3 152.8,284 		"/>
		<polygon class="st1" points="139.9,288.1 148.2,292.8 139.9,297.6 		"/>
		<polygon class="st1" points="120.2,319.3 131,313.1 131,325.5 		"/>
		<polygon class="st1" points="115.7,325.5 127.9,332.5 115.7,339.5 		"/>
		<polygon class="st1" points="94.9,359 109.3,350.6 109.3,367.3 		"/>
		<polygon class="st1" points="91.9,363.5 106.8,372.2 91.9,380.8 		"/>
		<polygon class="st1" points="71.8,398.6 86.5,390.2 86.5,407.1 		"/>
		<polygon class="st1" points="69.3,403.9 83.2,411.8 69.3,419.8 		"/>
		<polygon class="st1" points="73.2,425.1 85.8,417.8 85.8,432.3 		"/>
		<polygon class="st1" points="93.6,445.9 103.4,451.5 93.6,457.1 		"/>
		<polygon class="st1" points="98.8,464.7 107.3,459.8 107.3,469.6 		"/>
		<polygon class="st1" points="117.7,487.6 123.8,491.2 117.7,494.7 		"/>
		<polygon class="st1" points="124,504.4 129.1,501.5 129.1,507.3 		"/>
		<polygon class="st1" points="141.8,529.3 144.4,530.8 141.8,532.3 		"/>
		<polygon class="st1" points="149.2,544.1 150.8,543.1 150.8,545 		"/>
		<polygon class="st1" points="165.6,570.5 165.6,570.5 165.6,570.5 		"/>
		<polygon class="st1" points="584.9,134.2 585.6,133.8 585.6,134.6 		"/>
		<polygon class="st1" points="585.3,107.7 585.4,107.7 585.4,107.8 		"/>
		<polygon class="st1" points="554.7,107.5 555.1,107.7 554.7,108 		"/>
		<polygon class="st1" points="539.3,107.7 539.7,107.5 539.7,108 		"/>
		<polygon class="st1" points="509,107.6 509.3,107.7 509,107.9 		"/>
		<polygon class="st1" points="493.7,107.7 493.9,107.6 493.9,107.9 		"/>
		<polygon class="st1" points="463.2,107.7 463.3,107.7 463.2,107.8 		"/>
		<polygon class="st1" points="447.9,107.7 448,107.7 448,107.8 		"/>
		<polygon class="st1" points="417.4,107.6 417.6,107.7 417.4,107.9 		"/>
		<polygon class="st1" points="402,107.7 402.3,107.6 402.3,107.9 		"/>
		<polygon class="st1" points="371.5,107.4 372,107.7 371.5,108.1 		"/>
		<polygon class="st1" points="355.9,107.7 356.6,107.3 356.6,108.2 		"/>
		<polygon class="st1" points="325.5,107.2 326.5,107.7 325.5,108.3 		"/>
		<polygon class="st1" points="309.9,107.7 311,107.1 311,108.4 		"/>
		<polygon class="st1" points="279.5,106.9 281.1,107.7 279.5,108.6 		"/>
		<polygon class="st1" points="263.5,107.7 265.4,106.7 265.4,108.8 		"/>
		<polygon class="st1" points="233.4,106.3 235.9,107.7 233.4,109.2 		"/>
		<polygon class="st1" points="217,134.2 220,132.5 220,135.9 		"/>
		<polygon class="st1" points="210.2,145.5 213.6,147.4 210.2,149.3 		"/>
		<polygon class="st1" points="193.3,173.9 197.5,171.5 197.5,176.2 		"/>
		<polygon class="st1" points="187,184.5 191.4,187.1 187,189.6 		"/>
		<polygon class="st1" points="170.3,213.5 174.6,211 174.6,216 		"/>
		<polygon class="st1" points="164.1,224.2 168.5,226.7 164.1,229.3 		"/>
		<polygon class="st1" points="146.9,253.2 152,250.2 152,256.1 		"/>
		<polygon class="st1" points="140.7,263.1 146.5,266.4 140.7,269.7 		"/>
		<polygon class="st1" points="122.5,292.8 129.8,288.6 129.8,297.1 		"/>
		<polygon class="st1" points="116.9,301.2 125.4,306.1 116.9,311 		"/>
		<polygon class="st1" points="96.7,332.5 108.4,325.8 108.4,339.2 		"/>
		<polygon class="st1" points="92.5,338.2 105.5,345.7 92.5,353.2 		"/>
		<polygon class="st1" points="71.8,372.2 86.5,363.7 86.5,380.6 		"/>
		<polygon class="st1" points="69.1,376.9 83.7,385.4 69.1,393.9 		"/>
		<polygon class="st1" points="49.6,411.8 63.2,404 63.2,419.7 		"/>
		<polygon class="st1" points="70.4,432.2 81,438.3 70.4,444.4 		"/>
		<polygon class="st1" points="75.7,451.5 84.6,446.4 84.6,456.6 		"/>
		<polygon class="st1" points="94.8,474.5 100.9,478 94.8,481.4 		"/>
		<polygon class="st1" points="101.1,491.2 106.2,488.3 106.2,494.1 		"/>
		<polygon class="st1" points="118.7,515.8 121.8,517.6 118.7,519.4 		"/>
		<polygon class="st1" points="126,530.8 128.1,529.7 128.1,532 		"/>
		<polygon class="st1" points="142.5,557 143,557.3 142.5,557.6 		"/>
		<polygon class="st1" points="562.5,94.5 562.5,94.5 562.5,94.5 		"/>
		<polygon class="st1" points="531.9,94.5 532,94.5 531.9,94.6 		"/>
		<polygon class="st1" points="394.5,94.4 394.7,94.5 394.5,94.6 		"/>
		<polygon class="st1" points="379,94.5 379.4,94.3 379.4,94.7 		"/>
		<polygon class="st1" points="348.5,94.1 349.2,94.5 348.5,94.9 		"/>
		<polygon class="st1" points="332.9,94.5 333.8,94 333.8,95 		"/>
		<polygon class="st1" points="302.6,93.8 303.7,94.5 302.6,95.2 		"/>
		<polygon class="st1" points="286.7,94.5 288.2,93.7 288.2,95.3 		"/>
		<polygon class="st1" points="256.5,93.4 258.4,94.5 256.5,95.6 		"/>
		<polygon class="st1" points="240.5,94.5 242.6,93.3 242.6,95.8 		"/>
		<polygon class="st1" points="217.2,107.7 219.9,106.2 219.9,109.3 		"/>
		<polygon class="st1" points="210.4,119.2 213.3,121 210.4,122.7 		"/>
		<polygon class="st1" points="193.7,147.4 197.3,145.3 197.3,149.5 		"/>
		<polygon class="st1" points="187.2,158.4 191,160.6 187.2,162.9 		"/>
		<polygon class="st1" points="170.6,187.1 174.5,184.8 174.5,189.3 		"/>
		<polygon class="st1" points="164.3,198.1 168.1,200.3 164.3,202.5 		"/>
		<polygon class="st1" points="147.9,226.7 151.5,224.7 151.5,228.8 		"/>
		<polygon class="st1" points="141.4,237.9 145.1,240 141.4,242.1 		"/>
		<polygon class="st1" points="124.2,266.4 129,263.6 129,269.2 		"/>
		<polygon class="st1" points="117.9,276.4 123.5,279.6 117.9,282.9 		"/>
		<polygon class="st1" points="99.3,306.1 107.1,301.6 107.1,310.5 		"/>
		<polygon class="st1" points="93.7,313.8 103.1,319.3 93.7,324.7 		"/>
		<polygon class="st1" points="73.2,345.7 85.8,338.4 85.8,353 		"/>
		<polygon class="st1" points="69.4,351 83.1,359 69.4,366.9 		"/>
		<polygon class="st1" points="49,385.4 63.5,377 63.5,393.8 		"/>
		<polygon class="st1" points="46.2,390.3 60.7,398.6 46.2,407 		"/>
		<polygon class="st1" points="47,418.1 59.1,425.1 47,432 		"/>
		<polygon class="st1" points="51.9,438.3 62.1,432.4 62.1,444.2 		"/>
		<polygon class="st1" points="71.7,460.8 78.5,464.7 71.7,468.6 		"/>
		<polygon class="st1" points="78.1,478 83.3,474.9 83.3,481 		"/>
		<polygon class="st1" points="95.8,502.5 99,504.4 95.8,506.2 		"/>
		<polygon class="st1" points="103,517.6 105.2,516.3 105.2,518.9 		"/>
		<polygon class="st1" points="119.5,543.6 120.2,544.1 119.5,544.5 		"/>
		<polygon class="st1" points="127.3,557.3 127.5,557.2 127.5,557.4 		"/>
		<polygon class="st1" points="402.1,81.3 402.2,81.3 402.2,81.3 		"/>
		<polygon class="st1" points="371.5,81.1 371.9,81.3 371.5,81.5 		"/>
		<polygon class="st1" points="356,81.3 356.6,81 356.6,81.6 		"/>
		<polygon class="st1" points="325.6,80.8 326.4,81.3 325.6,81.8 		"/>
		<polygon class="st1" points="309.9,81.3 310.9,80.7 310.9,81.9 		"/>
		<polygon class="st1" points="279.6,80.5 281,81.3 279.6,82.1 		"/>
		<polygon class="st1" points="263.7,81.3 265.4,80.3 265.4,82.3 		"/>
		<polygon class="st1" points="233.5,80.1 235.7,81.3 233.5,82.5 		"/>
		<polygon class="st1" points="217.5,81.3 219.7,80 219.7,82.6 		"/>
		<polygon class="st1" points="210.5,93 213.1,94.5 210.5,96 		"/>
		<polygon class="st1" points="193.9,121 197.2,119.1 197.2,122.8 		"/>
		<polygon class="st1" points="187.3,132.2 190.8,134.2 187.3,136.2 		"/>
		<polygon class="st1" points="170.8,160.6 174.4,158.5 174.4,162.7 		"/>
		<polygon class="st1" points="164.4,171.8 167.9,173.9 164.4,175.9 		"/>
		<polygon class="st1" points="148.3,200.3 151.3,198.6 151.3,202 		"/>
		<polygon class="st1" points="141.7,211.9 144.5,213.5 141.7,215.1 		"/>
		<polygon class="st1" points="125.5,240 128.3,238.3 128.3,241.6 		"/>
		<polygon class="st1" points="118.7,251.4 121.9,253.2 118.7,255 		"/>
		<polygon class="st1" points="101.4,279.6 106.1,276.9 106.1,282.3 		"/>
		<polygon class="st1" points="94.9,289.5 100.7,292.8 94.9,296.2 		"/>
		<polygon class="st1" points="75.6,319.3 84.6,314.1 84.6,324.5 		"/>
		<polygon class="st1" points="70.3,326.2 81.2,332.5 70.3,338.8 		"/>
		<polygon class="st1" points="49.6,359 63.2,351.1 63.2,366.8 		"/>
		<polygon class="st1" points="46.2,363.8 60.7,372.2 46.2,380.5 		"/>
		<polygon class="st1" points="25.9,398.6 40.7,390.1 40.7,407.2 		"/>
		<polygon class="st1" points="23.5,403.7 37.5,411.8 23.5,420 		"/>
		<polygon class="st1" points="27.6,425.1 39.9,418 39.9,432.1 		"/>
		<polygon class="st1" points="48.4,446.8 56.4,451.5 48.4,456.2 		"/>
		<polygon class="st1" points="54.5,464.7 60.8,461.1 60.8,468.4 		"/>
		<polygon class="st1" points="72.8,489.1 76.3,491.2 72.8,493.2 		"/>
		<polygon class="st1" points="79.9,504.4 82.4,502.9 82.4,505.8 		"/>
		<polygon class="st1" points="96.6,530.4 97.4,530.8 96.6,531.3 		"/>
		<polygon class="st1" points="104.3,544.1 104.6,543.9 104.6,544.2 		"/>
		<polygon class="st1" points="394.5,68 394.6,68.1 394.5,68.1 		"/>
		<polygon class="st1" points="379.1,68.1 379.4,68 379.4,68.2 		"/>
		<polygon class="st1" points="348.6,67.8 349.1,68.1 348.6,68.4 		"/>
		<polygon class="st1" points="333,68.1 333.7,67.6 333.7,68.5 		"/>
		<polygon class="st1" points="302.6,67.5 303.7,68.1 302.6,68.7 		"/>
		<polygon class="st1" points="286.8,68.1 288.1,67.3 288.1,68.8 		"/>
		<polygon class="st1" points="256.6,67.1 258.3,68.1 256.6,69 		"/>
		<polygon class="st1" points="240.6,68.1 242.5,67 242.5,69.2 		"/>
		<polygon class="st1" points="210.6,66.8 212.8,68.1 210.6,69.4 		"/>
		<polygon class="st1" points="194.2,94.5 197,92.9 197,96.2 		"/>
		<polygon class="st1" points="187.4,106 190.5,107.7 187.4,109.5 		"/>
		<polygon class="st1" points="171,134.2 174.3,132.3 174.3,136.1 		"/>
		<polygon class="st1" points="164.5,145.5 167.7,147.4 164.5,149.3 		"/>
		<polygon class="st1" points="148.3,173.9 151.3,172.2 151.3,175.5 		"/>
		<polygon class="st1" points="141.8,185.6 144.4,187.1 141.8,188.6 		"/>
		<polygon class="st1" points="126.1,213.5 128,212.4 128,214.7 		"/>
		<polygon class="st1" points="119.1,225.7 121,226.7 119.1,227.8 		"/>
		<polygon class="st1" points="102.9,253.2 105.3,251.8 105.3,254.5 		"/>
		<polygon class="st1" points="95.9,264.7 98.9,266.4 95.9,268.1 		"/>
		<polygon class="st1" points="78.2,292.8 83.3,289.9 83.3,295.8 		"/>
		<polygon class="st1" points="71.8,302.3 78.3,306.1 71.8,309.8 		"/>
		<polygon class="st1" points="51.6,332.5 62.2,326.4 62.2,338.6 		"/>
		<polygon class="st1" points="46.9,338.6 59.3,345.7 46.9,352.8 		"/>
		<polygon class="st1" points="25.9,372.2 40.7,363.6 40.7,380.7 		"/>
		<polygon class="st1" points="23.1,376.6 38.3,385.4 23.1,394.2 		"/>
		<polygon class="st1" points="3.2,411.8 17.7,403.4 17.7,420.2 		"/>
		<polygon class="st1" points="24.7,432.3 35.1,438.3 24.7,444.3 		"/>
		<polygon class="st1" points="30.4,451.5 38.5,446.8 38.5,456.2 		"/>
		<polygon class="st1" points="49.6,475.4 53.9,478 49.6,480.5 		"/>
		<polygon class="st1" points="56.6,491.2 59.7,489.4 59.7,493 		"/>
		<polygon class="st1" points="73.6,516.9 74.7,517.6 73.6,518.3 		"/>
		<polygon class="st1" points="81.3,530.8 81.7,530.6 81.7,531.1 		"/>
		<polygon class="st1" points="402.2,54.9 402.2,54.9 402.2,54.9 		"/>
		<polygon class="st1" points="371.6,54.7 371.9,54.9 371.6,55 		"/>
		<polygon class="st1" points="356.1,54.9 356.5,54.6 356.5,55.1 		"/>
		<polygon class="st1" points="325.6,54.4 326.4,54.9 325.6,55.3 		"/>
		<polygon class="st1" points="309.9,54.9 310.9,54.3 310.9,55.4 		"/>
		<polygon class="st1" points="279.6,54.1 280.9,54.9 279.6,55.6 		"/>
		<polygon class="st1" points="263.8,54.9 265.3,54 265.3,55.7 		"/>
		<polygon class="st1" points="233.6,53.8 235.5,54.9 233.6,55.9 		"/>
		<polygon class="st1" points="217.7,54.9 219.7,53.7 219.7,56 		"/>
		<polygon class="st1" points="194.5,68.1 196.9,66.7 196.9,69.4 		"/>
		<polygon class="st1" points="187.6,79.8 190.2,81.3 187.6,82.8 		"/>
		<polygon class="st1" points="171.1,107.7 174.2,106 174.2,109.5 		"/>
		<polygon class="st1" points="164.5,119.2 167.6,121 164.5,122.8 		"/>
		<polygon class="st1" points="148.3,147.4 151.3,145.7 151.3,149.1 		"/>
		<polygon class="st1" points="141.8,159.1 144.4,160.6 141.8,162.2 		"/>
		<polygon class="st1" points="126,187.1 128.1,185.9 128.1,188.2 		"/>
		<polygon class="st1" points="119.2,199.4 120.8,200.3 119.2,201.2 		"/>
		<polygon class="st1" points="103.8,226.7 104.8,226.1 104.8,227.4 		"/>
		<polygon class="st1" points="96.4,239.2 97.7,240 96.4,240.7 		"/>
		<polygon class="st1" points="80,266.4 82.4,265.1 82.4,267.8 		"/>
		<polygon class="st1" points="72.8,277.7 76.2,279.6 72.8,281.6 		"/>
		<polygon class="st1" points="54.6,306.1 60.7,302.5 60.7,309.6 		"/>
		<polygon class="st1" points="48.3,314.5 56.6,319.3 48.3,324.1 		"/>
		<polygon class="st1" points="27.5,345.7 39.9,338.5 39.9,352.9 		"/>
		<polygon class="st1" points="23.5,350.8 37.5,359 23.5,367.1 		"/>
		<polygon class="st1" points="2.4,385.4 18.1,376.3 18.1,394.5 		"/>
		<polygon class="st1" points="0,389.5 15.8,398.6 0,407.7 		"/>
		<polygon class="st1" points="0.9,417.4 14,425.1 0.9,432.7 		"/>
		<polygon class="st1" points="5.7,438.3 16.5,432.1 16.5,444.5 		"/>
		<polygon class="st1" points="26.1,461.2 32.2,464.7 26.1,468.2 		"/>
		<polygon class="st1" points="33,478 37.2,475.5 37.2,480.4 		"/>
		<polygon class="st1" points="50.5,503.4 52.2,504.4 50.5,505.4 		"/>
		<polygon class="st1" points="58.1,517.6 59,517.1 59,518.1 		"/>
		<polygon class="st1" points="394.5,41.6 394.6,41.6 394.5,41.7 		"/>
		<polygon class="st1" points="379.1,41.6 379.4,41.5 379.4,41.8 		"/>
		<polygon class="st1" points="348.6,41.3 349.1,41.6 348.6,41.9 		"/>
		<polygon class="st1" points="333.1,41.6 333.7,41.3 333.7,42 		"/>
		<polygon class="st1" points="302.6,41.1 303.6,41.6 302.6,42.2 		"/>
		<polygon class="st1" points="286.9,41.6 288.1,40.9 288.1,42.3 		"/>
		<polygon class="st1" points="256.6,40.7 258.2,41.6 256.6,42.5 		"/>
		<polygon class="st1" points="240.8,41.6 242.4,40.7 242.4,42.6 		"/>
		<polygon class="st1" points="210.7,40.5 212.6,41.6 210.7,42.7 		"/>
		<polygon class="st1" points="194.7,41.6 196.8,40.5 196.8,42.8 		"/>
		<polygon class="st1" points="187.7,53.6 189.9,54.9 187.7,56.2 		"/>
		<polygon class="st1" points="171.4,81.3 174.1,79.8 174.1,82.8 		"/>
		<polygon class="st1" points="164.6,92.9 167.5,94.5 164.6,96.2 		"/>
		<polygon class="st1" points="148.4,121 151.2,119.3 151.2,122.6 		"/>
		<polygon class="st1" points="141.7,132.6 144.5,134.2 141.7,135.8 		"/>
		<polygon class="st1" points="125.9,160.6 128.1,159.4 128.1,161.9 		"/>
		<polygon class="st1" points="119.1,172.8 121,173.9 119.1,174.9 		"/>
		<polygon class="st1" points="103.8,200.3 104.8,199.7 104.8,200.9 		"/>
		<polygon class="st1" points="96.6,213.2 97.3,213.5 96.6,213.9 		"/>
		<polygon class="st1" points="81.1,240 81.8,239.6 81.8,240.3 		"/>
		<polygon class="st1" points="73.6,252.6 74.6,253.2 73.6,253.8 		"/>
		<polygon class="st1" points="56.8,279.6 59.7,278 59.7,281.3 		"/>
		<polygon class="st1" points="49.7,290.4 53.8,292.8 49.7,295.3 		"/>
		<polygon class="st1" points="30.3,319.3 38.5,314.5 38.5,324.1 		"/>
		<polygon class="st1" points="24.6,326.4 35.2,332.5 24.6,338.7 		"/>
		<polygon class="st1" points="3.3,359 17.7,350.7 17.7,367.3 		"/>
		<polygon class="st1" points="0,363.1 15.7,372.2 0,381.2 		"/>
		<polygon class="st1" points="2.4,446.5 11,451.5 2.4,456.5 		"/>
		<polygon class="st1" points="8.7,464.7 15,461.1 15,468.4 		"/>
		<polygon class="st1" points="27.2,489.6 30,491.2 27.2,492.8 		"/>
		<polygon class="st1" points="34.8,504.4 36.3,503.5 36.3,505.3 		"/>
		<polygon class="st1" points="51.1,530.8 51.1,530.8 51.1,530.8 		"/>
		<polygon class="st1" points="417.5,28.4 417.5,28.4 417.5,28.4 		"/>
		<polygon class="st1" points="402.1,28.4 402.2,28.4 402.2,28.5 		"/>
		<polygon class="st1" points="371.5,28.2 371.9,28.4 371.5,28.6 		"/>
		<polygon class="st1" points="356,28.4 356.6,28.1 356.6,28.7 		"/>
		<polygon class="st1" points="325.6,28 326.4,28.4 325.6,28.9 		"/>
		<polygon class="st1" points="309.9,28.4 310.9,27.9 310.9,29 		"/>
		<polygon class="st1" points="279.6,27.7 280.9,28.4 279.6,29.1 		"/>
		<polygon class="st1" points="263.8,28.4 265.3,27.6 265.3,29.2 		"/>
		<polygon class="st1" points="233.7,27.4 235.4,28.4 233.7,29.4 		"/>
		<polygon class="st1" points="217.8,28.4 219.6,27.4 219.6,29.5 		"/>
		<polygon class="st1" points="187.8,27.2 189.8,28.4 187.8,29.6 		"/>
		<polygon class="st1" points="171.7,54.9 173.9,53.5 173.9,56.2 		"/>
		<polygon class="st1" points="164.7,66.7 167.2,68.1 164.7,69.5 		"/>
		<polygon class="st1" points="148.5,94.5 151.2,92.9 151.2,96.1 		"/>
		<polygon class="st1" points="141.7,106.2 144.5,107.7 141.7,109.3 		"/>
		<polygon class="st1" points="125.8,134.2 128.2,132.8 128.2,135.6 		"/>
		<polygon class="st1" points="119,146.2 121.2,147.4 119,148.7 		"/>
		<polygon class="st1" points="103.6,173.9 105,173 105,174.7 		"/>
		<polygon class="st1" points="96.5,186.5 97.5,187.1 96.5,187.6 		"/>
		<polygon class="st1" points="81.5,213.5 81.6,213.4 81.6,213.6 		"/>
		<polygon class="st1" points="73.9,226.7 74,226.7 73.9,226.8 		"/>
		<polygon class="st1" points="58.3,253.2 58.9,252.8 58.9,253.5 		"/>
		<polygon class="st1" points="50.6,265.6 52,266.4 50.6,267.2 		"/>
		<polygon class="st1" points="33.1,292.8 37.1,290.5 37.1,295.2 		"/>
		<polygon class="st1" points="26.2,302.7 32,306.1 26.2,309.4 		"/>
		<polygon class="st1" points="5.7,332.5 16.5,326.3 16.5,338.8 		"/>
		<polygon class="st1" points="0.9,338.2 14,345.7 0.9,353.3 		"/>
		<polygon class="st1" points="3.8,475.4 8.2,478 3.8,480.5 		"/>
		<polygon class="st1" points="11,491.2 13.8,489.5 13.8,492.8 		"/>
		<polygon class="st1" points="28,517.3 28.5,517.6 28,517.9 		"/>
		<polygon class="st1" points="425.1,15.2 425.1,15.2 425.1,15.2 		"/>
		<polygon class="st1" points="394.5,15.1 394.7,15.2 394.5,15.3 		"/>
		<polygon class="st1" points="379.1,15.2 379.4,15 379.4,15.4 		"/>
		<polygon class="st1" points="348.6,14.9 349.1,15.2 348.6,15.5 		"/>
		<polygon class="st1" points="333,15.2 333.7,14.8 333.7,15.6 		"/>
		<polygon class="st1" points="302.6,14.6 303.7,15.2 302.6,15.8 		"/>
		<polygon class="st1" points="286.9,15.2 288.1,14.5 288.1,15.9 		"/>
		<polygon class="st1" points="256.7,14.4 258.1,15.2 256.7,16 		"/>
		<polygon class="st1" points="240.8,15.2 242.4,14.3 242.4,16.1 		"/>
		<polygon class="st1" points="210.7,14.1 212.6,15.2 210.7,16.3 		"/>
		<polygon class="st1" points="194.8,15.2 196.8,14 196.8,16.4 		"/>
		<polygon class="st1" points="171.8,28.4 173.9,27.2 173.9,29.6 		"/>
		<polygon class="st1" points="164.8,40.3 167,41.6 164.8,42.9 		"/>
		<polygon class="st1" points="148.6,68.1 151.1,66.7 151.1,69.5 		"/>
		<polygon class="st1" points="141.8,79.8 144.4,81.3 141.8,82.8 		"/>
		<polygon class="st1" points="125.6,107.7 128.3,106.2 128.3,109.3 		"/>
		<polygon class="st1" points="119,119.6 121.4,121 119,122.4 		"/>
		<polygon class="st1" points="103.3,147.4 105.1,146.4 105.1,148.5 		"/>
		<polygon class="st1" points="96.4,159.8 97.8,160.6 96.4,161.4 		"/>
		<polygon class="st1" points="81.2,187.1 81.8,186.8 81.8,187.4 		"/>
		<polygon class="st1" points="73.9,200.2 74.1,200.3 73.9,200.4 		"/>
		<polygon class="st1" points="51,240 51.1,240 51,240 		"/>
		<polygon class="st1" points="34.9,266.4 36.2,265.7 36.2,267.1 		"/>
		<polygon class="st1" points="27.4,278.3 29.7,279.6 27.4,281 		"/>
		<polygon class="st1" points="9,306.1 14.8,302.7 14.8,309.5 		"/>
		<polygon class="st1" points="2.4,314.4 10.9,319.3 2.4,324.2 		"/>
		<polygon class="st1" points="4.7,503.4 6.4,504.4 4.7,505.3 		"/>
		<polygon class="st1" points="12.5,517.6 13.1,517.2 13.1,518 		"/>
		<polygon class="st1" points="417.5,2 417.5,2 417.5,2 		"/>
		<polygon class="st1" points="402.1,2 402.2,1.9 402.2,2 		"/>
		<polygon class="st1" points="371.5,1.7 371.9,2 371.5,2.2 		"/>
		<polygon class="st1" points="356,2 356.6,1.7 356.6,2.3 		"/>
		<polygon class="st1" points="325.6,1.5 326.4,2 325.6,2.5 		"/>
		<polygon class="st1" points="309.9,2 310.9,1.4 310.9,2.5 		"/>
		<polygon class="st1" points="279.7,1.3 280.9,2 279.7,2.7 		"/>
		<polygon class="st1" points="263.8,2 265.3,1.1 265.3,2.8 		"/>
		<polygon class="st1" points="233.7,1 235.4,2 233.7,2.9 		"/>
		<polygon class="st1" points="217.8,2 219.6,1 219.6,3 		"/>
		<polygon class="st1" points="187.8,0.8 189.8,2 187.8,3.1 		"/>
		<polygon class="st1" points="171.8,2 173.9,0.7 173.9,3.2 		"/>
		<polygon class="st1" points="164.8,13.9 167,15.2 164.8,16.5 		"/>
		<polygon class="st1" points="148.7,41.6 151.1,40.3 151.1,43 		"/>
		<polygon class="st1" points="141.9,53.5 144.2,54.9 141.9,56.2 		"/>
		<polygon class="st1" points="125.7,81.3 128.2,79.9 128.2,82.7 		"/>
		<polygon class="st1" points="118.9,93 121.5,94.5 118.9,96 		"/>
		<polygon class="st1" points="103,121 105.2,119.7 105.2,122.3 		"/>
		<polygon class="st1" points="96.2,133.1 98.1,134.2 96.2,135.3 		"/>
		<polygon class="st1" points="80.8,160.6 82,160 82,161.3 		"/>
		<polygon class="st1" points="73.7,173.4 74.4,173.9 73.7,174.3 		"/>
		<polygon class="st1" points="28.1,253.1 28.3,253.2 28.1,253.3 		"/>
		<polygon class="st1" points="11.4,279.6 13.6,278.3 13.6,280.9 		"/>
		<polygon class="st1" points="4,290.6 7.8,292.8 4,295.1 		"/>
		<polygon class="st1" points="148.7,15.2 151.1,13.8 151.1,16.6 		"/>
		<polygon class="st1" points="141.9,27.1 144.2,28.4 141.9,29.8 		"/>
		<polygon class="st1" points="125.7,54.9 128.2,53.4 128.2,56.3 		"/>
		<polygon class="st1" points="118.9,66.6 121.4,68.1 118.9,69.5 		"/>
		<polygon class="st1" points="102.8,94.5 105.3,93.1 105.3,96 		"/>
		<polygon class="st1" points="96.1,106.4 98.4,107.7 96.1,109.1 		"/>
		<polygon class="st1" points="80.4,134.2 82.2,133.2 82.2,135.2 		"/>
		<polygon class="st1" points="73.5,146.6 74.9,147.4 73.5,148.2 		"/>
		<polygon class="st1" points="58.3,173.9 58.9,173.5 58.9,174.2 		"/>
		<polygon class="st1" points="51,186.9 51.2,187.1 51,187.2 		"/>
		<polygon class="st1" points="12.8,253.2 12.9,253.1 12.9,253.3 		"/>
		<polygon class="st1" points="4.9,265.8 5.9,266.4 4.9,267 		"/>
		<polygon class="st1" points="141.9,0.6 144.2,2 141.9,3.4 		"/>
		<polygon class="st1" points="125.7,28.4 128.2,27 128.2,29.8 		"/>
		<polygon class="st1" points="118.9,40.2 121.4,41.6 118.9,43.1 		"/>
		<polygon class="st1" points="102.8,68.1 105.3,66.6 105.3,69.6 		"/>
		<polygon class="st1" points="96,79.9 98.5,81.3 96,82.7 		"/>
		<polygon class="st1" points="80.1,107.7 82.3,106.5 82.3,109 		"/>
		<polygon class="st1" points="73.3,119.8 75.3,121 73.3,122.1 		"/>
		<polygon class="st1" points="57.8,147.4 59.1,146.6 59.1,148.2 		"/>
		<polygon class="st1" points="50.7,160.1 51.7,160.6 50.7,161.2 		"/>
		<polygon class="st1" points="35.6,187.1 35.9,186.9 35.9,187.2 		"/>
		<polygon class="st1" points="125.7,2 128.2,0.5 128.2,3.4 		"/>
		<polygon class="st1" points="118.9,13.7 121.5,15.2 118.9,16.7 		"/>
		<polygon class="st1" points="102.8,41.6 105.3,40.1 105.3,43.1 		"/>
		<polygon class="st1" points="96,53.4 98.6,54.9 96,56.4 		"/>
		<polygon class="st1" points="79.9,81.3 82.4,79.9 82.4,82.7 		"/>
		<polygon class="st1" points="73.2,93.1 75.6,94.5 73.2,95.9 		"/>
		<polygon class="st1" points="57.4,121 59.3,119.9 59.3,122.1 		"/>
		<polygon class="st1" points="50.5,133.2 52.2,134.2 50.5,135.2 		"/>
		<polygon class="st1" points="35.1,160.6 36.1,160.1 36.1,161.2 		"/>
		<polygon class="st1" points="27.9,173.5 28.6,173.9 27.9,174.2 		"/>
		<polygon class="st1" points="102.7,15.2 105.4,13.6 105.4,16.8 		"/>
		<polygon class="st1" points="95.9,26.9 98.7,28.4 95.9,30 		"/>
		<polygon class="st1" points="79.8,54.9 82.5,53.3 82.5,56.4 		"/>
		<polygon class="st1" points="73.1,66.6 75.7,68.1 73.1,69.6 		"/>
		<polygon class="st1" points="57,94.5 59.5,93.1 59.5,96 		"/>
		<polygon class="st1" points="50.3,106.4 52.6,107.7 50.3,109 		"/>
		<polygon class="st1" points="34.6,134.2 36.4,133.2 36.4,135.2 		"/>
		<polygon class="st1" points="27.7,146.6 29.1,147.4 27.7,148.2 		"/>
		<polygon class="st1" points="12.4,173.9 13.1,173.5 13.1,174.2 		"/>
		<polygon class="st1" points="5.1,186.9 5.5,187.1 5.1,187.3 		"/>
		<polygon class="st1" points="95.9,0.4 98.7,2 95.9,3.6 		"/>
		<polygon class="st1" points="79.7,28.4 82.5,26.8 82.5,30 		"/>
		<polygon class="st1" points="73,40 75.8,41.6 73,43.3 		"/>
		<polygon class="st1" points="56.9,68.1 59.6,66.5 59.6,69.6 		"/>
		<polygon class="st1" points="50.2,79.8 52.8,81.3 50.2,82.8 		"/>
		<polygon class="st1" points="34.2,107.7 36.6,106.4 36.6,109.1 		"/>
		<polygon class="st1" points="27.4,119.7 29.6,121 27.4,122.2 		"/>
		<polygon class="st1" points="11.8,147.4 13.4,146.5 13.4,148.3 		"/>
		<polygon class="st1" points="4.9,160 6,160.6 4.9,161.3 		"/>
		<polygon class="st1" points="79.7,2 82.5,0.3 82.5,3.6 		"/>
		<polygon class="st1" points="73,13.5 75.9,15.2 73,16.9 		"/>
		<polygon class="st1" points="56.7,41.6 59.7,39.9 59.7,43.3 		"/>
		<polygon class="st1" points="50.1,53.2 52.9,54.9 50.1,56.5 		"/>
		<polygon class="st1" points="34,81.3 36.7,79.7 36.7,82.9 		"/>
		<polygon class="st1" points="27.3,93 29.9,94.5 27.3,96 		"/>
		<polygon class="st1" points="11.5,121 13.6,119.7 13.6,122.2 		"/>
		<polygon class="st1" points="4.6,133.1 6.5,134.2 4.6,135.3 		"/>
		<polygon class="st1" points="56.6,15.2 59.7,13.4 59.7,17 		"/>
		<polygon class="st1" points="50,26.6 53.1,28.4 50,30.2 		"/>
		<polygon class="st1" points="33.8,54.9 36.8,53.2 36.8,56.6 		"/>
		<polygon class="st1" points="27.2,66.4 30.1,68.1 27.2,69.8 		"/>
		<polygon class="st1" points="11.1,94.5 13.8,93 13.8,96.1 		"/>
		<polygon class="st1" points="4.4,106.3 6.9,107.7 4.4,109.2 		"/>
		<polygon class="st1" points="50,0.2 53.1,2 50,3.7 		"/>
		<polygon class="st1" points="33.7,28.4 36.8,26.6 36.8,30.2 		"/>
		<polygon class="st1" points="27.1,39.8 30.2,41.6 27.1,43.4 		"/>
		<polygon class="st1" points="10.9,68.1 13.9,66.4 13.9,69.8 		"/>
		<polygon class="st1" points="4.3,79.6 7.2,81.3 4.3,83 		"/>
		<polygon class="st1" points="33.7,2 36.8,0.1 36.8,3.8 		"/>
		<polygon class="st1" points="27.1,13.3 30.3,15.2 27.1,17.1 		"/>
		<polygon class="st1" points="10.8,41.6 13.9,39.8 13.9,43.5 		"/>
		<polygon class="st1" points="4.2,53 7.4,54.9 4.2,56.7 		"/>
		<polygon class="st1" points="10.7,15.2 14,13.3 14,17.1 		"/>
		<polygon class="st1" points="4.1,26.5 7.5,28.4 4.1,30.3 		"/>
		<polygon class="st1" points="4.1,0 7.5,2 4.1,3.9 		"/>
	</g>
	<g>
		<polygon class="st1" points="383.6,532.1 383.6,532.1 383.6,532.1 		"/>
		<polygon class="st1" points="391.2,518.8 391.2,518.8 391.2,518.8 		"/>
		<polygon class="st1" points="368.2,558.5 368.3,558.4 368.3,558.6 		"/>
		<polygon class="st1" points="383.5,558.3 383.8,558.5 383.5,558.7 		"/>
		<polygon class="st1" points="391,545.3 391.3,545.1 391.3,545.4 		"/>
		<polygon class="st1" points="406.4,518.7 406.6,518.8 406.4,518.9 		"/>
		<polygon class="st1" points="414,505.6 414.1,505.6 414.1,505.7 		"/>
		<polygon class="st1" points="429.4,479.2 429.4,479.2 429.4,479.2 		"/>
		<polygon class="st1" points="360.6,571.7 360.7,571.7 360.6,571.8 		"/>
		<polygon class="st1" points="390.9,571.7 391.4,571.4 391.4,572 		"/>
		<polygon class="st1" points="406.3,545 406.8,545.3 406.3,545.5 		"/>
		<polygon class="st1" points="413.8,532.1 414.2,531.8 414.2,532.3 		"/>
		<polygon class="st1" points="429.3,505.4 429.6,505.6 429.3,505.8 		"/>
		<polygon class="st1" points="436.8,492.4 437.1,492.3 437.1,492.5 		"/>
		<polygon class="st1" points="452.2,465.9 452.3,465.9 452.2,466 		"/>
		<polygon class="st1" points="459.8,452.7 459.9,452.7 459.9,452.8 		"/>
		<polygon class="st1" points="368.1,584.9 368.4,584.8 368.4,585.1 		"/>
		<polygon class="st1" points="383.4,584.6 383.9,584.9 383.4,585.2 		"/>
		<polygon class="st1" points="406.2,571.3 407,571.7 406.2,572.1 		"/>
		<polygon class="st1" points="413.6,558.5 414.3,558.1 414.3,558.9 		"/>
		<polygon class="st1" points="429.2,531.7 429.8,532.1 429.2,532.4 		"/>
		<polygon class="st1" points="436.6,518.8 437.2,518.5 437.2,519.2 		"/>
		<polygon class="st1" points="452.1,492.1 452.5,492.4 452.1,492.6 		"/>
		<polygon class="st1" points="459.6,479.2 460,478.9 460,479.4 		"/>
		<polygon class="st1" points="475.1,452.6 475.3,452.7 475.1,452.9 		"/>
		<polygon class="st1" points="482.7,439.5 482.9,439.4 482.9,439.6 		"/>
		<polygon class="st1" points="498,413 498.1,413.1 498,413.1 		"/>
		<polygon class="st1" points="505.7,399.8 505.7,399.8 505.7,399.8 		"/>
		<polygon class="st1" points="345.3,598.2 345.4,598.1 345.4,598.2 		"/>
		<polygon class="st1" points="360.6,598 360.9,598.2 360.6,598.3 		"/>
		<polygon class="st1" points="390.7,598.2 391.4,597.7 391.4,598.6 		"/>
		<polygon class="st1" points="406.2,597.6 407.1,598.2 406.2,598.7 		"/>
		<polygon class="st1" points="413.5,584.9 414.4,584.4 414.4,585.5 		"/>
		<polygon class="st1" points="429.1,558 430,558.5 429.1,559 		"/>
		<polygon class="st1" points="436.4,545.3 437.3,544.8 437.3,545.8 		"/>
		<polygon class="st1" points="452,518.4 452.8,518.8 452,519.3 		"/>
		<polygon class="st1" points="459.4,505.6 460.2,505.2 460.2,506 		"/>
		<polygon class="st1" points="475,478.8 475.5,479.2 475,479.5 		"/>
		<polygon class="st1" points="482.5,465.9 483,465.6 483,466.2 		"/>
		<polygon class="st1" points="497.9,439.3 498.3,439.5 497.9,439.7 		"/>
		<polygon class="st1" points="505.5,426.3 505.8,426.1 505.8,426.5 		"/>
		<polygon class="st1" points="520.9,399.7 521.1,399.8 520.9,399.9 		"/>
		<polygon class="st1" points="528.5,386.6 528.6,386.6 528.6,386.7 		"/>
		<polygon class="st1" points="429,584.3 430.1,584.9 429,585.6 		"/>
		<polygon class="st1" points="436.2,571.7 437.4,571 437.4,572.4 		"/>
		<polygon class="st1" points="451.9,544.7 453,545.3 451.9,545.9 		"/>
		<polygon class="st1" points="459.2,532.1 460.3,531.4 460.3,532.7 		"/>
		<polygon class="st1" points="474.9,505.1 475.8,505.6 474.9,506.2 		"/>
		<polygon class="st1" points="482.2,492.4 483.1,491.9 483.1,492.9 		"/>
		<polygon class="st1" points="497.8,465.5 498.6,465.9 497.8,466.4 		"/>
		<polygon class="st1" points="505.3,452.7 505.9,452.4 505.9,453.1 		"/>
		<polygon class="st1" points="520.8,426 521.3,426.3 520.8,426.6 		"/>
		<polygon class="st1" points="528.3,413.1 528.7,412.8 528.7,413.3 		"/>
		<polygon class="st1" points="543.8,386.5 544,386.6 543.8,386.8 		"/>
		<polygon class="st1" points="551.4,373.4 551.6,373.3 551.6,373.5 		"/>
		<polygon class="st1" points="436.1,598.2 437.5,597.4 437.5,599 		"/>
		<polygon class="st1" points="451.8,570.9 453.2,571.7 451.8,572.5 		"/>
		<polygon class="st1" points="459,558.5 460.3,557.7 460.3,559.3 		"/>
		<polygon class="st1" points="474.7,531.3 476,532.1 474.7,532.8 		"/>
		<polygon class="st1" points="482,518.8 483.2,518.1 483.2,519.5 		"/>
		<polygon class="st1" points="497.7,491.8 498.8,492.4 497.7,493 		"/>
		<polygon class="st1" points="505.1,479.2 506,478.6 506,479.7 		"/>
		<polygon class="st1" points="520.7,452.2 521.5,452.7 520.7,453.2 		"/>
		<polygon class="st1" points="528.1,439.5 528.8,439.1 528.8,439.9 		"/>
		<polygon class="st1" points="543.7,412.7 544.3,413.1 543.7,413.4 		"/>
		<polygon class="st1" points="551.2,399.8 551.7,399.5 551.7,400.1 		"/>
		<polygon class="st1" points="566.7,373.2 567,373.4 566.7,373.6 		"/>
		<polygon class="st1" points="574.3,360.2 574.5,360.1 574.5,360.3 		"/>
		<polygon class="st1" points="451.7,597.2 453.4,598.2 451.7,599.1 		"/>
		<polygon class="st1" points="458.8,584.9 460.4,584 460.4,585.9 		"/>
		<polygon class="st1" points="474.7,557.6 476.2,558.5 474.7,559.4 		"/>
		<polygon class="st1" points="481.8,545.3 483.3,544.4 483.3,546.2 		"/>
		<polygon class="st1" points="497.6,518 499,518.8 497.6,519.6 		"/>
		<polygon class="st1" points="504.8,505.6 506.1,504.8 506.1,506.4 		"/>
		<polygon class="st1" points="520.6,478.5 521.8,479.2 520.6,479.8 		"/>
		<polygon class="st1" points="527.9,465.9 529,465.3 529,466.6 		"/>
		<polygon class="st1" points="543.6,439 544.5,439.5 543.6,440.1 		"/>
		<polygon class="st1" points="550.9,426.3 551.8,425.8 551.8,426.8 		"/>
		<polygon class="st1" points="566.6,399.5 567.2,399.8 566.6,400.2 		"/>
		<polygon class="st1" points="574.1,386.6 574.6,386.3 574.6,386.9 		"/>
		<polygon class="st1" points="474.6,583.9 476.4,584.9 474.6,586 		"/>
		<polygon class="st1" points="481.6,571.7 483.4,570.6 483.4,572.8 		"/>
		<polygon class="st1" points="497.5,544.3 499.2,545.3 497.5,546.3 		"/>
		<polygon class="st1" points="504.6,532.1 506.3,531.1 506.3,533 		"/>
		<polygon class="st1" points="520.5,504.7 522,505.6 520.5,506.5 		"/>
		<polygon class="st1" points="527.6,492.4 529.1,491.6 529.1,493.2 		"/>
		<polygon class="st1" points="543.4,465.2 544.7,465.9 543.4,466.7 		"/>
		<polygon class="st1" points="550.7,452.7 551.9,452 551.9,453.4 		"/>
		<polygon class="st1" points="566.5,425.7 567.4,426.3 566.5,426.8 		"/>
		<polygon class="st1" points="573.8,413.1 574.7,412.6 574.7,413.5 		"/>
		<polygon class="st1" points="481.4,598.2 483.5,597 483.5,599.4 		"/>
		<polygon class="st1" points="497.4,570.5 499.5,571.7 497.4,572.9 		"/>
		<polygon class="st1" points="504.4,558.5 506.4,557.3 506.4,559.7 		"/>
		<polygon class="st1" points="520.3,531 522.2,532.1 520.3,533.2 		"/>
		<polygon class="st1" points="527.4,518.8 529.2,517.8 529.2,519.9 		"/>
		<polygon class="st1" points="543.3,491.5 545,492.4 543.3,493.3 		"/>
		<polygon class="st1" points="550.5,479.2 552,478.3 552,480.1 		"/>
		<polygon class="st1" points="566.3,452 567.7,452.7 566.3,453.5 		"/>
		<polygon class="st1" points="573.6,439.5 574.8,438.8 574.8,440.2 		"/>
		<polygon class="st1" points="497.3,596.8 499.6,598.2 497.3,599.5 		"/>
		<polygon class="st1" points="504.2,584.9 506.5,583.6 506.5,586.3 		"/>
		<polygon class="st1" points="520.2,557.2 522.5,558.5 520.2,559.8 		"/>
		<polygon class="st1" points="527.1,545.3 529.3,544 529.3,546.5 		"/>
		<polygon class="st1" points="543.2,517.7 545.2,518.8 543.2,520 		"/>
		<polygon class="st1" points="550.2,505.6 552.1,504.5 552.1,506.7 		"/>
		<polygon class="st1" points="566.2,478.2 567.9,479.2 566.2,480.2 		"/>
		<polygon class="st1" points="573.4,465.9 574.9,465 574.9,466.8 		"/>
		<polygon class="st1" points="520.1,583.5 522.6,584.9 520.1,586.4 		"/>
		<polygon class="st1" points="527,571.7 529.4,570.3 529.4,573.1 		"/>
		<polygon class="st1" points="543.1,543.9 545.4,545.3 543.1,546.6 		"/>
		<polygon class="st1" points="550,532.1 552.3,530.8 552.3,533.4 		"/>
		<polygon class="st1" points="566.1,504.4 568.2,505.6 566.1,506.8 		"/>
		<polygon class="st1" points="573.1,492.4 575.1,491.3 575.1,493.5 		"/>
		<polygon class="st1" points="526.8,598.2 529.5,596.6 529.5,599.7 		"/>
		<polygon class="st1" points="543,570.2 545.7,571.7 543,573.3 		"/>
		<polygon class="st1" points="549.8,558.5 552.4,557 552.4,560 		"/>
		<polygon class="st1" points="565.9,530.6 568.4,532.1 565.9,533.5 		"/>
		<polygon class="st1" points="572.8,518.8 575.2,517.5 575.2,520.2 		"/>
		<polygon class="st1" points="542.9,596.5 545.8,598.2 542.9,599.9 		"/>
		<polygon class="st1" points="549.5,584.9 552.5,583.2 552.5,586.6 		"/>
		<polygon class="st1" points="565.8,556.9 568.6,558.5 565.8,560.1 		"/>
		<polygon class="st1" points="572.6,545.3 575.3,543.7 575.3,546.8 		"/>
		<polygon class="st1" points="565.8,583.2 568.8,584.9 565.8,586.7 		"/>
		<polygon class="st1" points="572.4,571.7 575.4,570 575.4,573.5 		"/>
		<polygon class="st1" points="572.2,598.2 575.5,596.3 575.5,600.1 		"/>
	</g>
</g>
</svg>
