<?xml version="1.0" encoding="utf-8"?>
<!-- Generator: Adobe Illustrator 22.0.0, SVG Export Plug-In . SVG Version: 6.00 Build 0)  -->
<svg version="1.1" id="Layer_1" xmlns="http://www.w3.org/2000/svg" xmlns:xlink="http://www.w3.org/1999/xlink" x="0px" y="0px"
	 viewBox="0 0 450 450" style="enable-background:new 0 0 450 450;" xml:space="preserve">
<style type="text/css">
	.st0{opacity:0.96;clip-path:url(#SVGID_2_);fill:#CCCCCC;}
	.st1{opacity:0.35;clip-path:url(#SVGID_2_);fill:#FFFFFF;}
	.st2{opacity:0.18;clip-path:url(#SVGID_2_);fill:#FFFFFF;}
	.st3{opacity:0.96;clip-path:url(#SVGID_2_);fill:#FFFFFF;}
	.st4{opacity:0.51;clip-path:url(#SVGID_2_);fill:#FFFFFF;}
	.st5{opacity:0.84;clip-path:url(#SVGID_2_);fill:#FFFFFF;}
	.st6{opacity:8.000000e-02;clip-path:url(#SVGID_2_);fill:#FFFFFF;}
	.st7{opacity:0.92;clip-path:url(#SVGID_2_);fill:#FFFFFF;}
	.st8{opacity:0.91;clip-path:url(#SVGID_2_);fill:#FFFFFF;}
	.st9{opacity:0.28;clip-path:url(#SVGID_2_);fill:#FFFFFF;}
	.st10{opacity:0.32;clip-path:url(#SVGID_2_);fill:#FFFFFF;}
	.st11{opacity:0.98;clip-path:url(#SVGID_2_);fill:#FFFFFF;}
	.st12{opacity:0.94;clip-path:url(#SVGID_2_);fill:#FFFFFF;}
	.st13{opacity:0.22;clip-path:url(#SVGID_2_);fill:#FFFFFF;}
	.st14{opacity:0.34;clip-path:url(#SVGID_2_);fill:#FFFFFF;}
	.st15{opacity:0.56;clip-path:url(#SVGID_2_);fill:#FFFFFF;}
	.st16{opacity:0.81;clip-path:url(#SVGID_2_);fill:#FFFFFF;}
	.st17{opacity:3.000000e-02;clip-path:url(#SVGID_2_);fill:#FFFFFF;}
	.st18{opacity:0.19;clip-path:url(#SVGID_2_);fill:#FFFFFF;}
	.st19{opacity:0.41;clip-path:url(#SVGID_2_);fill:#FFFFFF;}
	.st20{opacity:0.76;clip-path:url(#SVGID_2_);fill:#FFFFFF;}
	.st21{opacity:0.64;clip-path:url(#SVGID_2_);fill:#FFFFFF;}
	.st22{opacity:0.62;clip-path:url(#SVGID_2_);fill:#FFFFFF;}
	.st23{opacity:0.17;clip-path:url(#SVGID_2_);fill:#FFFFFF;}
	.st24{opacity:0.71;clip-path:url(#SVGID_2_);fill:#FFFFFF;}
	.st25{opacity:0.43;clip-path:url(#SVGID_2_);fill:#FFFFFF;}
	.st26{opacity:9.000000e-02;clip-path:url(#SVGID_2_);fill:#FFFFFF;}
	.st27{opacity:0.47;clip-path:url(#SVGID_2_);fill:#FFFFFF;}
	.st28{opacity:0.26;clip-path:url(#SVGID_2_);fill:#FFFFFF;}
	.st29{opacity:0.87;clip-path:url(#SVGID_2_);fill:#FFFFFF;}
	.st30{opacity:0.63;clip-path:url(#SVGID_2_);fill:#FFFFFF;}
	.st31{opacity:1.000000e-02;clip-path:url(#SVGID_2_);fill:#FFFFFF;}
	.st32{opacity:0.6;clip-path:url(#SVGID_2_);fill:#FFFFFF;}
	.st33{opacity:0.77;clip-path:url(#SVGID_2_);fill:#FFFFFF;}
	.st34{opacity:0.74;clip-path:url(#SVGID_2_);fill:#FFFFFF;}
	.st35{opacity:0.61;clip-path:url(#SVGID_2_);fill:#FFFFFF;}
	.st36{opacity:0.15;clip-path:url(#SVGID_2_);fill:#FFFFFF;}
	.st37{opacity:5.000000e-02;clip-path:url(#SVGID_2_);fill:#FFFFFF;}
	.st38{opacity:0.53;clip-path:url(#SVGID_2_);fill:#FFFFFF;}
	.st39{opacity:7.000000e-02;clip-path:url(#SVGID_2_);fill:#FFFFFF;}
	.st40{opacity:0.16;clip-path:url(#SVGID_2_);fill:#FFFFFF;}
	.st41{opacity:0.23;clip-path:url(#SVGID_2_);fill:#FFFFFF;}
	.st42{opacity:0.55;clip-path:url(#SVGID_2_);fill:#FFFFFF;}
	.st43{opacity:0.72;clip-path:url(#SVGID_2_);fill:#FFFFFF;}
	.st44{opacity:0.42;clip-path:url(#SVGID_2_);fill:#FFFFFF;}
	.st45{opacity:0.38;clip-path:url(#SVGID_2_);fill:#FFFFFF;}
	.st46{opacity:0.93;clip-path:url(#SVGID_2_);fill:#FFFFFF;}
	.st47{opacity:0.7;clip-path:url(#SVGID_2_);fill:#FFFFFF;}
	.st48{opacity:0.5;clip-path:url(#SVGID_2_);fill:#FFFFFF;}
	.st49{opacity:0.57;clip-path:url(#SVGID_2_);fill:#FFFFFF;}
	.st50{opacity:0.21;clip-path:url(#SVGID_2_);fill:#FFFFFF;}
	.st51{opacity:0.79;clip-path:url(#SVGID_2_);fill:#FFFFFF;}
	.st52{opacity:0.39;clip-path:url(#SVGID_2_);fill:#FFFFFF;}
	.st53{opacity:0.69;clip-path:url(#SVGID_2_);fill:#FFFFFF;}
	.st54{opacity:0.37;clip-path:url(#SVGID_2_);fill:#FFFFFF;}
	.st55{opacity:0.12;clip-path:url(#SVGID_2_);fill:#FFFFFF;}
	.st56{opacity:0.52;clip-path:url(#SVGID_2_);fill:#FFFFFF;}
	.st57{opacity:0.73;clip-path:url(#SVGID_2_);fill:#FFFFFF;}
	.st58{opacity:0.13;clip-path:url(#SVGID_2_);fill:#FFFFFF;}
	.st59{opacity:2.000000e-02;clip-path:url(#SVGID_2_);fill:#FFFFFF;}
	.st60{opacity:0.88;clip-path:url(#SVGID_2_);fill:#FFFFFF;}
	.st61{opacity:0.97;clip-path:url(#SVGID_2_);fill:#FFFFFF;}
	.st62{opacity:0.45;clip-path:url(#SVGID_2_);fill:#FFFFFF;}
	.st63{opacity:0.83;clip-path:url(#SVGID_2_);fill:#FFFFFF;}
	.st64{opacity:0.11;clip-path:url(#SVGID_2_);fill:#FFFFFF;}
	.st65{opacity:0.48;clip-path:url(#SVGID_2_);fill:#FFFFFF;}
	.st66{opacity:0.66;clip-path:url(#SVGID_2_);fill:#FFFFFF;}
	.st67{opacity:0.9;clip-path:url(#SVGID_2_);fill:#FFFFFF;}
	.st68{opacity:0.31;clip-path:url(#SVGID_2_);fill:#FFFFFF;}
	.st69{opacity:0.82;clip-path:url(#SVGID_2_);fill:#FFFFFF;}
	.st70{opacity:0.89;clip-path:url(#SVGID_2_);fill:#FFFFFF;}
	.st71{opacity:0.29;clip-path:url(#SVGID_2_);fill:#FFFFFF;}
	.st72{opacity:6.000000e-02;clip-path:url(#SVGID_2_);fill:#FFFFFF;}
	.st73{opacity:0.1;clip-path:url(#SVGID_2_);fill:#FFFFFF;}
	.st74{opacity:0.59;clip-path:url(#SVGID_2_);fill:#FFFFFF;}
	.st75{opacity:0.8;clip-path:url(#SVGID_2_);fill:#FFFFFF;}
	.st76{opacity:4.000000e-02;clip-path:url(#SVGID_2_);fill:#FFFFFF;}
	.st77{opacity:0.99;clip-path:url(#SVGID_2_);fill:#FFFFFF;}
	.st78{opacity:0.33;clip-path:url(#SVGID_2_);fill:#FFFFFF;}
	.st79{opacity:0.68;clip-path:url(#SVGID_2_);fill:#FFFFFF;}
	.st80{opacity:0.2;clip-path:url(#SVGID_2_);fill:#FFFFFF;}
	.st81{opacity:0.3;clip-path:url(#SVGID_2_);fill:#FFFFFF;}
	.st82{opacity:0.25;clip-path:url(#SVGID_2_);fill:#FFFFFF;}
	.st83{opacity:0.24;clip-path:url(#SVGID_2_);fill:#FFFFFF;}
	.st84{opacity:0.95;clip-path:url(#SVGID_2_);fill:#FFFFFF;}
	.st85{opacity:0.85;clip-path:url(#SVGID_2_);fill:#FFFFFF;}
	.st86{opacity:0;clip-path:url(#SVGID_2_);fill:#FFFFFF;}
	.st87{opacity:0.65;clip-path:url(#SVGID_2_);fill:#FFFFFF;}
	.st88{clip-path:url(#SVGID_2_);fill:none;}
</style>
<g>
	<defs>
		<rect id="SVGID_1_" width="450" height="450"/>
	</defs>
	<clipPath id="SVGID_2_">
		<use xlink:href="#SVGID_1_"  style="overflow:visible;"/>
	</clipPath>
	<rect class="st0" width="450" height="450"/>
	<polygon class="st1" points="412.5,389.7 450,324.8 487.5,389.7 	"/>
	<polygon class="st2" points="375,65 412.5,0 450,65 	"/>
	<polygon class="st3" points="412.5,129.9 375,194.9 337.5,129.9 	"/>
	<polygon class="st4" points="150,194.9 112.5,259.8 75,194.9 	"/>
	<polygon class="st5" points="412.5,389.7 375,454.7 337.5,389.7 	"/>
	<polygon class="st6" points="75,194.9 37.5,259.8 0,194.9 	"/>
	<polygon class="st7" points="300,454.7 337.5,389.7 375,454.7 	"/>
	<polygon class="st8" points="37.5,259.8 0,324.8 -37.5,259.8 	"/>
	<polygon class="st9" points="337.5,129.9 375,65 412.5,129.9 	"/>
	<polygon class="st10" points="412.5,259.8 375,324.8 337.5,259.8 	"/>
	<polygon class="st11" points="-37.5,259.8 0,194.9 37.5,259.8 	"/>
	<polygon class="st12" points="412.5,0 375,65 337.5,0 	"/>
	<polygon class="st13" points="112.5,129.9 75,194.9 37.5,129.9 	"/>
	<polygon class="st9" points="487.5,259.8 450,324.8 412.5,259.8 	"/>
	<polygon class="st11" points="150,324.8 187.5,259.8 225,324.8 	"/>
	<polygon class="st14" points="225,65 187.5,129.9 150,65 	"/>
	<polygon class="st10" points="262.5,259.8 300,194.9 337.5,259.8 	"/>
	<polygon class="st15" points="300,324.8 337.5,259.8 375,324.8 	"/>
	<polygon class="st16" points="-37.5,389.7 0,324.8 37.5,389.7 	"/>
	<polygon class="st8" points="-37.5,129.9 0,65 37.5,129.9 	"/>
	<polygon class="st17" points="337.5,389.7 300,454.7 262.5,389.7 	"/>
	<polygon class="st18" points="450,194.9 412.5,259.8 375,194.9 	"/>
	<polygon class="st19" points="75,194.9 112.5,129.9 150,194.9 	"/>
	<polygon class="st20" points="262.5,389.7 300,324.8 337.5,389.7 	"/>
	<polygon class="st17" points="37.5,259.8 75,194.9 112.5,259.8 	"/>
	<polygon class="st21" points="37.5,0 0,65 -37.5,0 	"/>
	<polygon class="st22" points="150,65 187.5,0 225,65 	"/>
	<polygon class="st23" points="487.5,389.7 450,454.7 412.5,389.7 	"/>
	<polygon class="st24" points="225,454.7 262.5,389.7 300,454.7 	"/>
	<polygon class="st25" points="150,65 112.5,129.9 75,65 	"/>
	<polygon class="st26" points="225,194.9 262.5,129.9 300,194.9 	"/>
	<polygon class="st27" points="75,65 112.5,0 150,65 	"/>
	<polygon class="st28" points="187.5,259.8 150,324.8 112.5,259.8 	"/>
	<polygon class="st29" points="187.5,259.8 225,194.9 262.5,259.8 	"/>
	<polygon class="st2" points="375,324.8 337.5,389.7 300,324.8 	"/>
	<polygon class="st30" points="487.5,0 450,65 412.5,0 	"/>
	<polygon class="st23" points="412.5,259.8 450,194.9 487.5,259.8 	"/>
	<polygon class="st25" points="262.5,389.7 225,454.7 187.5,389.7 	"/>
	<polygon class="st31" points="187.5,129.9 150,194.9 112.5,129.9 	"/>
	<polygon class="st5" points="487.5,129.9 450,194.9 412.5,129.9 	"/>
	<polygon class="st32" points="187.5,129.9 225,65 262.5,129.9 	"/>
	<polygon class="st33" points="225,324.8 262.5,259.8 300,324.8 	"/>
	<polygon class="st34" points="75,454.7 112.5,389.7 150,454.7 	"/>
	<polygon class="st6" points="300,194.9 337.5,129.9 375,194.9 	"/>
	<polygon class="st20" points="450,65 412.5,129.9 375,65 	"/>
	<polygon class="st35" points="375,324.8 412.5,259.8 450,324.8 	"/>
	<polygon class="st25" points="75,324.8 37.5,389.7 0,324.8 	"/>
	<polygon class="st36" points="37.5,389.7 75,324.8 112.5,389.7 	"/>
	<polygon class="st14" points="112.5,259.8 150,194.9 187.5,259.8 	"/>
	<polygon class="st37" points="375,454.7 412.5,389.7 450,454.7 	"/>
	<polygon class="st18" points="0,454.7 37.5,389.7 75,454.7 	"/>
	<polygon class="st22" points="337.5,259.8 300,324.8 262.5,259.8 	"/>
	<polygon class="st4" points="0,194.9 37.5,129.9 75,194.9 	"/>
	<polygon class="st38" points="300,65 262.5,129.9 225,65 	"/>
	<polygon class="st21" points="225,194.9 187.5,259.8 150,194.9 	"/>
	<polygon class="st21" points="112.5,0 75,65 37.5,0 	"/>
	<polygon class="st39" points="0,65 37.5,0 75,65 	"/>
	<polygon class="st29" points="450,324.8 412.5,389.7 375,324.8 	"/>
	<polygon class="st40" points="375,65 337.5,129.9 300,65 	"/>
	<polygon class="st41" points="75,324.8 112.5,259.8 150,324.8 	"/>
	<polygon class="st42" points="375,194.9 412.5,129.9 450,194.9 	"/>
	<polygon class="st35" points="187.5,0 150,65 112.5,0 	"/>
	<polygon class="st43" points="337.5,0 300,65 262.5,0 	"/>
	<polygon class="st44" points="262.5,129.9 225,194.9 187.5,129.9 	"/>
	<polygon class="st45" points="187.5,389.7 150,454.7 112.5,389.7 	"/>
	<polygon class="st46" points="262.5,0 225,65 187.5,0 	"/>
	<polygon class="st12" points="337.5,129.9 300,194.9 262.5,129.9 	"/>
	<polygon class="st47" points="150,324.8 112.5,389.7 75,324.8 	"/>
	<polygon class="st48" points="37.5,129.9 75,65 112.5,129.9 	"/>
	<polygon class="st49" points="150,454.7 187.5,389.7 225,454.7 	"/>
	<polygon class="st50" points="225,65 262.5,0 300,65 	"/>
	<polygon class="st51" points="300,65 337.5,0 375,65 	"/>
	<polygon class="st52" points="300,324.8 262.5,389.7 225,324.8 	"/>
	<polygon class="st21" points="337.5,389.7 375,324.8 412.5,389.7 	"/>
	<polygon class="st7" points="112.5,129.9 150,65 187.5,129.9 	"/>
	<polygon class="st22" points="75,65 37.5,129.9 0,65 	"/>
	<polygon class="st37" points="262.5,129.9 300,65 337.5,129.9 	"/>
	<polygon class="st53" points="112.5,259.8 75,324.8 37.5,259.8 	"/>
	<polygon class="st4" points="112.5,389.7 150,324.8 187.5,389.7 	"/>
	<polygon class="st1" points="150,194.9 187.5,129.9 225,194.9 	"/>
	<polygon class="st54" points="112.5,389.7 75,454.7 37.5,389.7 	"/>
	<polygon class="st55" points="375,194.9 337.5,259.8 300,194.9 	"/>
	<polygon class="st56" points="0,324.8 37.5,259.8 75,324.8 	"/>
	<polygon class="st44" points="225,324.8 187.5,389.7 150,324.8 	"/>
	<polygon class="st33" points="300,194.9 262.5,259.8 225,194.9 	"/>
	<polygon class="st34" points="337.5,259.8 375,194.9 412.5,259.8 	"/>
	<polygon class="st57" points="37.5,129.9 0,194.9 -37.5,129.9 	"/>
	<polygon class="st24" points="412.5,129.9 450,65 487.5,129.9 	"/>
	<polygon class="st24" points="187.5,389.7 225,324.8 262.5,389.7 	"/>
	<polygon class="st58" points="37.5,389.7 0,454.7 -37.5,389.7 	"/>
	<polygon class="st59" points="262.5,259.8 225,324.8 187.5,259.8 	"/>
	<polygon class="st55" points="37.5,65 0,129.9 -37.5,65 	"/>
	<polygon class="st52" points="75,389.7 37.5,454.7 0,389.7 	"/>
	<polygon class="st60" points="37.5,324.8 75,259.8 112.5,324.8 	"/>
	<polygon class="st60" points="300,259.8 337.5,194.9 375,259.8 	"/>
	<polygon class="st57" points="37.5,65 75,0 112.5,65 	"/>
	<polygon class="st20" points="375,259.8 412.5,194.9 450,259.8 	"/>
	<polygon class="st61" points="150,0 112.5,65 75,0 	"/>
	<polygon class="st62" points="412.5,194.9 450,129.9 487.5,194.9 	"/>
	<polygon class="st4" points="112.5,324.8 75,389.7 37.5,324.8 	"/>
	<polygon class="st2" points="37.5,194.9 75,129.9 112.5,194.9 	"/>
	<polygon class="st21" points="487.5,194.9 450,259.8 412.5,194.9 	"/>
	<polygon class="st5" points="37.5,454.7 75,389.7 112.5,454.7 	"/>
	<polygon class="st23" points="337.5,324.8 375,259.8 412.5,324.8 	"/>
	<polygon class="st28" points="-37.5,194.9 0,129.9 37.5,194.9 	"/>
	<polygon class="st36" points="300,129.9 262.5,194.9 225,129.9 	"/>
	<polygon class="st63" points="225,389.7 262.5,324.8 300,389.7 	"/>
	<polygon class="st64" points="187.5,194.9 150,259.8 112.5,194.9 	"/>
	<polygon class="st1" points="150,129.9 112.5,194.9 75,129.9 	"/>
	<polygon class="st33" points="487.5,65 450,129.9 412.5,65 	"/>
	<polygon class="st53" points="487.5,324.8 450,389.7 412.5,324.8 	"/>
	<polygon class="st65" points="112.5,65 150,0 187.5,65 	"/>
	<polygon class="st66" points="0,259.8 37.5,194.9 75,259.8 	"/>
	<polygon class="st67" points="375,259.8 337.5,324.8 300,259.8 	"/>
	<polygon class="st68" points="187.5,65 150,129.9 112.5,65 	"/>
	<polygon class="st19" points="412.5,194.9 375,259.8 337.5,194.9 	"/>
	<polygon class="st42" points="412.5,454.7 450,389.7 487.5,454.7 	"/>
	<polygon class="st57" points="300,389.7 262.5,454.7 225,389.7 	"/>
	<polygon class="st15" points="-37.5,65 0,0 37.5,65 	"/>
	<polygon class="st41" points="225,0 187.5,65 150,0 	"/>
	<polygon class="st35" points="300,389.7 337.5,324.8 375,389.7 	"/>
	<polygon class="st69" points="225,259.8 187.5,324.8 150,259.8 	"/>
	<polygon class="st18" points="375,389.7 337.5,454.7 300,389.7 	"/>
	<polygon class="st33" points="262.5,194.9 300,129.9 337.5,194.9 	"/>
	<polygon class="st51" points="262.5,194.9 225,259.8 187.5,194.9 	"/>
	<polygon class="st65" points="75,129.9 112.5,65 150,129.9 	"/>
	<polygon class="st70" points="-37.5,454.7 0,389.7 37.5,454.7 	"/>
	<polygon class="st41" points="37.5,194.9 0,259.8 -37.5,194.9 	"/>
	<polygon class="st22" points="187.5,65 225,0 262.5,65 	"/>
	<polygon class="st43" points="262.5,324.8 300,259.8 337.5,324.8 	"/>
	<polygon class="st6" points="-37.5,324.8 0,259.8 37.5,324.8 	"/>
	<polygon class="st51" points="262.5,324.8 225,389.7 187.5,324.8 	"/>
	<polygon class="st29" points="225,129.9 187.5,194.9 150,129.9 	"/>
	<polygon class="st71" points="375,0 337.5,65 300,0 	"/>
	<polygon class="st72" points="150,259.8 112.5,324.8 75,259.8 	"/>
	<polygon class="st17" points="0,389.7 37.5,324.8 75,389.7 	"/>
	<polygon class="st73" points="75,129.9 37.5,194.9 0,129.9 	"/>
	<polygon class="st74" points="375,129.9 412.5,65 450,129.9 	"/>
	<polygon class="st75" points="412.5,65 375,129.9 337.5,65 	"/>
	<polygon class="st13" points="337.5,194.9 300,259.8 262.5,194.9 	"/>
	<polygon class="st76" points="75,0 37.5,65 0,0 	"/>
	<polygon class="st17" points="450,0 412.5,65 375,0 	"/>
	<polygon class="st49" points="112.5,194.9 150,129.9 187.5,194.9 	"/>
	<polygon class="st57" points="450,259.8 412.5,324.8 375,259.8 	"/>
	<polygon class="st10" points="150,389.7 187.5,324.8 225,389.7 	"/>
	<polygon class="st17" points="225,259.8 262.5,194.9 300,259.8 	"/>
	<polygon class="st15" points="337.5,454.7 375,389.7 412.5,454.7 	"/>
	<polygon class="st32" points="450,389.7 412.5,454.7 375,389.7 	"/>
	<polygon class="st38" points="0,129.9 37.5,65 75,129.9 	"/>
	<polygon class="st67" points="75,389.7 112.5,324.8 150,389.7 	"/>
	<polygon class="st60" points="375,129.9 337.5,194.9 300,129.9 	"/>
	<polygon class="st77" points="75,259.8 37.5,324.8 0,259.8 	"/>
	<polygon class="st31" points="262.5,454.7 300,389.7 337.5,454.7 	"/>
	<polygon class="st74" points="112.5,454.7 150,389.7 187.5,454.7 	"/>
	<polygon class="st54" points="187.5,324.8 225,259.8 262.5,324.8 	"/>
	<polygon class="st18" points="262.5,65 300,0 337.5,65 	"/>
	<polygon class="st50" points="187.5,454.7 225,389.7 262.5,454.7 	"/>
	<polygon class="st24" points="112.5,324.8 150,259.8 187.5,324.8 	"/>
	<polygon class="st53" points="300,129.9 337.5,65 375,129.9 	"/>
	<polygon class="st78" points="412.5,324.8 375,389.7 337.5,324.8 	"/>
	<polygon class="st79" points="300,0 262.5,65 225,0 	"/>
	<polygon class="st80" points="225,389.7 187.5,454.7 150,389.7 	"/>
	<polygon class="st61" points="150,389.7 112.5,454.7 75,389.7 	"/>
	<polygon class="st30" points="150,129.9 187.5,65 225,129.9 	"/>
	<polygon class="st81" points="112.5,65 75,129.9 37.5,65 	"/>
	<polygon class="st82" points="337.5,324.8 300,389.7 262.5,324.8 	"/>
	<polygon class="st83" points="375,389.7 412.5,324.8 450,389.7 	"/>
	<polygon class="st84" points="187.5,324.8 150,389.7 112.5,324.8 	"/>
	<polygon class="st18" points="337.5,194.9 375,129.9 412.5,194.9 	"/>
	<polygon class="st85" points="337.5,65 300,129.9 262.5,65 	"/>
	<polygon class="st62" points="300,259.8 262.5,324.8 225,259.8 	"/>
	<polygon class="st50" points="337.5,65 375,0 412.5,65 	"/>
	<polygon class="st22" points="75,259.8 112.5,194.9 150,259.8 	"/>
	<polygon class="st86" points="450,129.9 412.5,194.9 375,129.9 	"/>
	<polygon class="st73" points="225,129.9 262.5,65 300,129.9 	"/>
	<polygon class="st64" points="150,259.8 187.5,194.9 225,259.8 	"/>
	<polygon class="st56" points="112.5,194.9 75,259.8 37.5,194.9 	"/>
	<polygon class="st72" points="412.5,324.8 450,259.8 487.5,324.8 	"/>
	<polygon class="st85" points="37.5,324.8 0,389.7 -37.5,324.8 	"/>
	<polygon class="st22" points="262.5,65 225,129.9 187.5,65 	"/>
	<polygon class="st65" points="412.5,65 450,0 487.5,65 	"/>
	<polygon class="st87" points="187.5,194.9 225,129.9 262.5,194.9 	"/>
	<rect x="0" y="4.7" class="st88" width="450" height="450"/>
</g>
</svg>
