<?xml version="1.0" encoding="utf-8"?>
<!-- Generator: Adobe Illustrator 22.0.0, SVG Export Plug-In . SVG Version: 6.00 Build 0)  -->
<svg version="1.1" id="Layer_1" xmlns="http://www.w3.org/2000/svg" xmlns:xlink="http://www.w3.org/1999/xlink" x="0px" y="0px"
	 viewBox="0 0 470.4 336.8" style="enable-background:new 0 0 470.4 336.8;" xml:space="preserve">
<style type="text/css">
	.st0{fill:#F7F7F7;}
	.st1{fill:#E3E3E3;}
	.st2{fill:#F0F0F0;}
	.st3{fill:#D4D4D4;}
</style>
<g>
	<polygon class="st0" points="18.8,10.9 37.6,21.7 37.6,0 	"/>
	<polygon class="st0" points="37.6,21.7 56.5,32.6 56.5,10.9 	"/>
	<polygon class="st1" points="56.4,10.9 37.6,0 37.6,21.7 	"/>
	<polygon class="st0" points="37.6,21.7 18.8,10.9 18.8,32.6 	"/>
	<polygon class="st2" points="18.8,32.6 37.6,43.5 37.6,21.7 	"/>
	<polygon class="st2" points="56.4,32.6 37.6,21.7 37.6,43.5 	"/>
	<polygon class="st2" points="56.4,10.9 75.3,21.7 75.3,0 	"/>
	<polygon class="st0" points="75.3,21.7 94.1,32.6 94.1,10.9 	"/>
	<polygon class="st2" points="94.1,10.9 75.3,0 75.3,21.7 	"/>
	<polygon class="st1" points="75.3,21.7 56.4,10.9 56.4,32.6 	"/>
	<polygon class="st3" points="56.4,32.6 75.3,43.5 75.3,21.7 	"/>
	<polygon class="st0" points="94.1,32.6 75.3,21.7 75.3,43.5 	"/>
	<polygon class="st3" points="94.1,10.9 112.9,21.7 112.9,0 	"/>
	<polygon class="st0" points="112.9,21.7 131.7,32.6 131.7,10.9 	"/>
	<polygon class="st1" points="131.7,10.9 112.9,0 112.9,21.7 	"/>
	<polygon class="st1" points="112.9,21.7 94.1,10.9 94.1,32.6 	"/>
	<polygon class="st2" points="94.1,32.6 112.9,43.5 112.9,21.7 	"/>
	<polygon class="st3" points="131.7,32.6 112.9,21.7 112.9,43.5 	"/>
	<polygon class="st0" points="131.7,10.9 150.5,21.7 150.5,0 	"/>
	<polygon class="st2" points="150.5,21.7 169.4,32.6 169.4,10.9 	"/>
	<polygon class="st1" points="169.3,10.9 150.5,0 150.5,21.7 	"/>
	<polygon class="st1" points="150.5,21.7 131.7,10.9 131.7,32.6 	"/>
	<polygon class="st2" points="131.7,32.6 150.5,43.5 150.5,21.7 	"/>
	<polygon class="st0" points="169.3,32.6 150.5,21.7 150.5,43.5 	"/>
	<polygon class="st1" points="169.3,10.9 188.2,21.7 188.2,0 	"/>
	<polygon class="st3" points="188.2,21.7 207,32.6 207,10.9 	"/>
	<polygon class="st2" points="207,10.9 188.2,0 188.2,21.7 	"/>
	<polygon class="st1" points="188.2,21.7 169.3,10.9 169.3,32.6 	"/>
	<polygon class="st3" points="169.3,32.6 188.2,43.5 188.2,21.7 	"/>
	<polygon class="st2" points="207,32.6 188.2,21.7 188.2,43.5 	"/>
	<polygon class="st1" points="207,10.9 225.8,21.7 225.8,0 	"/>
	<polygon class="st2" points="225.8,21.7 244.6,32.6 244.6,10.9 	"/>
	<polygon class="st0" points="244.6,10.9 225.8,0 225.8,21.7 	"/>
	<polygon class="st2" points="225.8,21.7 207,10.9 207,32.6 	"/>
	<polygon class="st2" points="207,32.6 225.8,43.5 225.8,21.7 	"/>
	<polygon class="st2" points="244.6,32.6 225.8,21.7 225.8,43.5 	"/>
	<polygon class="st1" points="244.6,10.9 263.4,21.7 263.4,0 	"/>
	<polygon class="st2" points="263.4,21.7 282.3,32.6 282.3,10.9 	"/>
	<polygon class="st2" points="282.2,10.9 263.4,0 263.4,21.7 	"/>
	<polygon class="st2" points="263.4,21.7 244.6,10.9 244.6,32.6 	"/>
	<polygon class="st1" points="244.6,32.6 263.4,43.5 263.4,21.7 	"/>
	<polygon class="st2" points="282.2,32.6 263.4,21.7 263.4,43.5 	"/>
	<polygon class="st0" points="282.2,10.9 301.1,21.7 301.1,0 	"/>
	<polygon class="st2" points="301.1,21.7 319.9,32.6 319.9,10.9 	"/>
	<polygon class="st3" points="319.9,10.9 301.1,0 301.1,21.7 	"/>
	<polygon class="st0" points="301.1,21.7 282.2,10.9 282.2,32.6 	"/>
	<polygon class="st2" points="282.2,32.6 301.1,43.5 301.1,21.7 	"/>
	<polygon class="st1" points="319.9,32.6 301.1,21.7 301.1,43.5 	"/>
	<polygon class="st0" points="319.9,10.9 338.7,21.7 338.7,0 	"/>
	<polygon class="st0" points="338.7,21.7 357.5,32.6 357.5,10.9 	"/>
	<polygon class="st2" points="357.5,10.9 338.7,0 338.7,21.7 	"/>
	<polygon class="st1" points="338.7,21.7 319.9,10.9 319.9,32.6 	"/>
	<polygon class="st1" points="319.9,32.6 338.7,43.5 338.7,21.7 	"/>
	<polygon class="st2" points="357.5,32.6 338.7,21.7 338.7,43.5 	"/>
	<polygon class="st1" points="357.5,10.9 376.3,21.7 376.3,0 	"/>
	<polygon class="st2" points="376.3,21.7 395.2,32.6 395.2,10.9 	"/>
	<polygon class="st1" points="395.1,10.9 376.3,0 376.3,21.7 	"/>
	<polygon class="st2" points="376.3,21.7 357.5,10.9 357.5,32.6 	"/>
	<polygon class="st1" points="357.5,32.6 376.3,43.5 376.3,21.7 	"/>
	<polygon class="st0" points="395.1,32.6 376.3,21.7 376.3,43.5 	"/>
	<polygon class="st1" points="395.1,10.9 414,21.7 414,0 	"/>
	<polygon class="st2" points="414,21.7 432.8,32.6 432.8,10.9 	"/>
	<polygon class="st1" points="432.8,10.9 414,0 414,21.7 	"/>
	<polygon class="st2" points="414,21.7 395.1,10.9 395.1,32.6 	"/>
	<polygon class="st2" points="395.1,32.6 414,43.5 414,21.7 	"/>
	<polygon class="st0" points="432.8,32.6 414,21.7 414,43.5 	"/>
	<polygon class="st2" points="432.8,10.9 451.6,21.7 451.6,0 	"/>
	<polygon class="st2" points="451.6,21.7 470.4,32.6 470.4,10.9 	"/>
	<polygon class="st2" points="470.4,10.9 451.6,0 451.6,21.7 	"/>
	<polygon class="st0" points="451.6,21.7 432.8,10.9 432.8,32.6 	"/>
	<polygon class="st3" points="432.8,32.6 451.6,43.5 451.6,21.7 	"/>
	<polygon class="st1" points="470.4,32.6 451.6,21.7 451.6,43.5 	"/>
	<polygon class="st0" points="0,43.5 18.8,54.3 18.8,32.6 	"/>
	<polygon class="st1" points="18.8,54.3 37.6,65.2 37.6,43.5 	"/>
	<polygon class="st3" points="37.6,43.5 18.8,32.6 18.8,54.3 	"/>
	<polygon class="st2" points="18.8,54.3 0,43.5 0,65.2 	"/>
	<polygon class="st3" points="0,65.2 18.8,76 18.8,54.3 	"/>
	<polygon class="st0" points="37.6,65.2 18.8,54.3 18.8,76 	"/>
	<polygon class="st1" points="37.6,43.5 56.4,54.3 56.4,32.6 	"/>
	<polygon class="st0" points="56.5,54.3 75.3,65.2 75.3,43.5 	"/>
	<polygon class="st1" points="75.3,43.5 56.4,32.6 56.4,54.3 	"/>
	<polygon class="st2" points="56.4,54.3 37.6,43.5 37.6,65.2 	"/>
	<polygon class="st1" points="37.6,65.2 56.4,76 56.4,54.3 	"/>
	<polygon class="st0" points="75.3,65.2 56.4,54.3 56.4,76 	"/>
	<polygon class="st3" points="75.3,43.5 94.1,54.3 94.1,32.6 	"/>
	<polygon class="st2" points="94.1,54.3 112.9,65.2 112.9,43.5 	"/>
	<polygon class="st1" points="112.9,43.5 94.1,32.6 94.1,54.3 	"/>
	<polygon class="st1" points="94.1,54.3 75.3,43.5 75.3,65.2 	"/>
	<polygon class="st3" points="75.3,65.2 94.1,76 94.1,54.3 	"/>
	<polygon class="st2" points="112.9,65.2 94.1,54.3 94.1,76 	"/>
	<polygon class="st2" points="112.9,43.5 131.7,54.3 131.7,32.6 	"/>
	<polygon class="st3" points="131.7,54.3 150.5,65.2 150.5,43.5 	"/>
	<polygon class="st1" points="150.5,43.5 131.7,32.6 131.7,54.3 	"/>
	<polygon class="st2" points="131.7,54.3 112.9,43.5 112.9,65.2 	"/>
	<polygon class="st1" points="112.9,65.2 131.7,76 131.7,54.3 	"/>
	<polygon class="st1" points="150.5,65.2 131.7,54.3 131.7,76 	"/>
	<polygon class="st2" points="150.5,43.5 169.3,54.3 169.3,32.6 	"/>
	<polygon class="st1" points="169.4,54.3 188.2,65.2 188.2,43.5 	"/>
	<polygon class="st0" points="188.2,43.5 169.3,32.6 169.3,54.3 	"/>
	<polygon class="st2" points="169.3,54.3 150.5,43.5 150.5,65.2 	"/>
	<polygon class="st1" points="150.5,65.2 169.3,76 169.3,54.3 	"/>
	<polygon class="st1" points="188.2,65.2 169.3,54.3 169.3,76 	"/>
	<polygon class="st1" points="188.2,43.5 207,54.3 207,32.6 	"/>
	<polygon class="st3" points="207,54.3 225.8,65.2 225.8,43.5 	"/>
	<polygon class="st1" points="225.8,43.5 207,32.6 207,54.3 	"/>
	<polygon class="st1" points="207,54.3 188.2,43.5 188.2,65.2 	"/>
	<polygon class="st1" points="188.2,65.2 207,76 207,54.3 	"/>
	<polygon class="st2" points="225.8,65.2 207,54.3 207,76 	"/>
	<polygon class="st2" points="225.8,43.5 244.6,54.3 244.6,32.6 	"/>
	<polygon class="st0" points="244.6,54.3 263.4,65.2 263.4,43.5 	"/>
	<polygon class="st1" points="263.4,43.5 244.6,32.6 244.6,54.3 	"/>
	<polygon class="st1" points="244.6,54.3 225.8,43.5 225.8,65.2 	"/>
	<polygon class="st2" points="225.8,65.2 244.6,76 244.6,54.3 	"/>
	<polygon class="st2" points="263.4,65.2 244.6,54.3 244.6,76 	"/>
	<polygon class="st2" points="263.4,43.5 282.2,54.3 282.2,32.6 	"/>
	<polygon class="st3" points="282.3,54.3 301.1,65.2 301.1,43.5 	"/>
	<polygon class="st2" points="301.1,43.5 282.2,32.6 282.2,54.3 	"/>
	<polygon class="st1" points="282.2,54.3 263.4,43.5 263.4,65.2 	"/>
	<polygon class="st1" points="263.4,65.2 282.2,76 282.2,54.3 	"/>
	<polygon class="st3" points="301.1,65.2 282.2,54.3 282.2,76 	"/>
	<polygon class="st3" points="301.1,43.5 319.9,54.3 319.9,32.6 	"/>
	<polygon class="st1" points="319.9,54.3 338.7,65.2 338.7,43.5 	"/>
	<polygon class="st1" points="338.7,43.5 319.9,32.6 319.9,54.3 	"/>
	<polygon class="st3" points="319.9,54.3 301.1,43.5 301.1,65.2 	"/>
	<polygon class="st2" points="301.1,65.2 319.9,76 319.9,54.3 	"/>
	<polygon class="st3" points="338.7,65.2 319.9,54.3 319.9,76 	"/>
	<polygon class="st1" points="338.7,43.5 357.5,54.3 357.5,32.6 	"/>
	<polygon class="st2" points="357.5,54.3 376.3,65.2 376.3,43.5 	"/>
	<polygon class="st1" points="376.3,43.5 357.5,32.6 357.5,54.3 	"/>
	<polygon class="st2" points="357.5,54.3 338.7,43.5 338.7,65.2 	"/>
	<polygon class="st2" points="338.7,65.2 357.5,76 357.5,54.3 	"/>
	<polygon class="st1" points="376.3,65.2 357.5,54.3 357.5,76 	"/>
	<polygon class="st0" points="376.3,43.5 395.1,54.3 395.1,32.6 	"/>
	<polygon class="st3" points="395.2,54.3 414,65.2 414,43.5 	"/>
	<polygon class="st1" points="414,43.5 395.1,32.6 395.1,54.3 	"/>
	<polygon class="st3" points="395.1,54.3 376.3,43.5 376.3,65.2 	"/>
	<polygon class="st3" points="376.3,65.2 395.1,76 395.1,54.3 	"/>
	<polygon class="st3" points="414,65.2 395.1,54.3 395.1,76 	"/>
	<polygon class="st1" points="414,43.5 432.8,54.3 432.8,32.6 	"/>
	<polygon class="st2" points="432.8,54.3 451.6,65.2 451.6,43.5 	"/>
	<polygon class="st2" points="451.6,43.5 432.8,32.6 432.8,54.3 	"/>
	<polygon class="st1" points="432.8,54.3 414,43.5 414,65.2 	"/>
	<polygon class="st1" points="414,65.2 432.8,76 432.8,54.3 	"/>
	<polygon class="st2" points="451.6,65.2 432.8,54.3 432.8,76 	"/>
	<polygon class="st0" points="18.8,76 37.6,86.9 37.6,65.2 	"/>
	<polygon class="st3" points="37.6,86.9 56.5,97.8 56.5,76 	"/>
	<polygon class="st3" points="56.4,76 37.6,65.2 37.6,86.9 	"/>
	<polygon class="st2" points="37.6,86.9 18.8,76 18.8,97.8 	"/>
	<polygon class="st2" points="18.8,97.8 37.6,108.6 37.6,86.9 	"/>
	<polygon class="st2" points="56.4,97.8 37.6,86.9 37.6,108.6 	"/>
	<polygon class="st2" points="56.4,76 75.3,86.9 75.3,65.2 	"/>
	<polygon class="st0" points="75.3,86.9 94.1,97.8 94.1,76 	"/>
	<polygon class="st1" points="94.1,76 75.3,65.2 75.3,86.9 	"/>
	<polygon class="st2" points="75.3,86.9 56.4,76 56.4,97.8 	"/>
	<polygon class="st0" points="56.4,97.8 75.3,108.6 75.3,86.9 	"/>
	<polygon class="st2" points="94.1,97.8 75.3,86.9 75.3,108.6 	"/>
	<polygon class="st0" points="94.1,76 112.9,86.9 112.9,65.2 	"/>
	<polygon class="st1" points="112.9,86.9 131.7,97.8 131.7,76 	"/>
	<polygon class="st1" points="131.7,76 112.9,65.2 112.9,86.9 	"/>
	<polygon class="st0" points="112.9,86.9 94.1,76 94.1,97.8 	"/>
	<polygon class="st1" points="94.1,97.8 112.9,108.6 112.9,86.9 	"/>
	<polygon class="st2" points="131.7,97.8 112.9,86.9 112.9,108.6 	"/>
	<polygon class="st0" points="131.7,76 150.5,86.9 150.5,65.2 	"/>
	<polygon class="st1" points="150.5,86.9 169.4,97.8 169.4,76 	"/>
	<polygon class="st2" points="169.3,76 150.5,65.2 150.5,86.9 	"/>
	<polygon class="st1" points="150.5,86.9 131.7,76 131.7,97.8 	"/>
	<polygon class="st2" points="131.7,97.8 150.5,108.6 150.5,86.9 	"/>
	<polygon class="st2" points="169.3,97.8 150.5,86.9 150.5,108.6 	"/>
	<polygon class="st2" points="169.3,76 188.2,86.9 188.2,65.2 	"/>
	<polygon class="st2" points="188.2,86.9 207,97.8 207,76 	"/>
	<polygon class="st1" points="207,76 188.2,65.2 188.2,86.9 	"/>
	<polygon class="st2" points="188.2,86.9 169.3,76 169.3,97.8 	"/>
	<polygon class="st3" points="169.3,97.8 188.2,108.6 188.2,86.9 	"/>
	<polygon class="st2" points="207,97.8 188.2,86.9 188.2,108.6 	"/>
	<polygon class="st0" points="207,76 225.8,86.9 225.8,65.2 	"/>
	<polygon class="st2" points="225.8,86.9 244.6,97.8 244.6,76 	"/>
	<polygon class="st0" points="244.6,76 225.8,65.2 225.8,86.9 	"/>
	<polygon class="st1" points="225.8,86.9 207,76 207,97.8 	"/>
	<polygon class="st3" points="207,97.8 225.8,108.6 225.8,86.9 	"/>
	<polygon class="st3" points="244.6,97.8 225.8,86.9 225.8,108.6 	"/>
	<polygon class="st1" points="244.6,76 263.4,86.9 263.4,65.2 	"/>
	<polygon class="st1" points="263.4,86.9 282.3,97.8 282.3,76 	"/>
	<polygon class="st2" points="282.2,76 263.4,65.2 263.4,86.9 	"/>
	<polygon class="st1" points="263.4,86.9 244.6,76 244.6,97.8 	"/>
	<polygon class="st2" points="244.6,97.8 263.4,108.6 263.4,86.9 	"/>
	<polygon class="st1" points="282.2,97.8 263.4,86.9 263.4,108.6 	"/>
	<polygon class="st2" points="282.2,76 301.1,86.9 301.1,65.2 	"/>
	<polygon class="st3" points="301.1,86.9 319.9,97.8 319.9,76 	"/>
	<polygon class="st2" points="319.9,76 301.1,65.2 301.1,86.9 	"/>
	<polygon class="st2" points="301.1,86.9 282.2,76 282.2,97.8 	"/>
	<polygon class="st0" points="282.2,97.8 301.1,108.6 301.1,86.9 	"/>
	<polygon class="st0" points="319.9,97.8 301.1,86.9 301.1,108.6 	"/>
	<polygon class="st1" points="319.9,76 338.7,86.9 338.7,65.2 	"/>
	<polygon class="st3" points="338.7,86.9 357.5,97.8 357.5,76 	"/>
	<polygon class="st3" points="357.5,76 338.7,65.2 338.7,86.9 	"/>
	<polygon class="st2" points="338.7,86.9 319.9,76 319.9,97.8 	"/>
	<polygon class="st1" points="319.9,97.8 338.7,108.6 338.7,86.9 	"/>
	<polygon class="st0" points="357.5,97.8 338.7,86.9 338.7,108.6 	"/>
	<polygon class="st2" points="357.5,76 376.3,86.9 376.3,65.2 	"/>
	<polygon class="st0" points="376.3,86.9 395.2,97.8 395.2,76 	"/>
	<polygon class="st3" points="395.1,76 376.3,65.2 376.3,86.9 	"/>
	<polygon class="st2" points="376.3,86.9 357.5,76 357.5,97.8 	"/>
	<polygon class="st0" points="357.5,97.8 376.3,108.6 376.3,86.9 	"/>
	<polygon class="st0" points="395.1,97.8 376.3,86.9 376.3,108.6 	"/>
	<polygon class="st2" points="395.1,76 414,86.9 414,65.2 	"/>
	<polygon class="st3" points="414,86.9 432.8,97.8 432.8,76 	"/>
	<polygon class="st1" points="432.8,76 414,65.2 414,86.9 	"/>
	<polygon class="st1" points="414,86.9 395.1,76 395.1,97.8 	"/>
	<polygon class="st0" points="395.1,97.8 414,108.6 414,86.9 	"/>
	<polygon class="st0" points="432.8,97.8 414,86.9 414,108.6 	"/>
	<polygon class="st1" points="432.8,76 451.6,86.9 451.6,65.2 	"/>
	<polygon class="st0" points="451.6,86.9 470.4,97.8 470.4,76 	"/>
	<polygon class="st3" points="470.4,76 451.6,65.2 451.6,86.9 	"/>
	<polygon class="st0" points="451.6,86.9 432.8,76 432.8,97.8 	"/>
	<polygon class="st3" points="432.8,97.8 451.6,108.6 451.6,86.9 	"/>
	<polygon class="st1" points="470.4,97.8 451.6,86.9 451.6,108.6 	"/>
	<polygon class="st1" points="0,108.6 18.8,119.5 18.8,97.8 	"/>
	<polygon class="st2" points="18.8,119.5 37.6,130.4 37.6,108.6 	"/>
	<polygon class="st2" points="37.6,108.6 18.8,97.8 18.8,119.5 	"/>
	<polygon class="st3" points="18.8,119.5 0,108.6 0,130.4 	"/>
	<polygon class="st0" points="0,130.4 18.8,141.2 18.8,119.5 	"/>
	<polygon class="st0" points="37.6,130.4 18.8,119.5 18.8,141.2 	"/>
	<polygon class="st0" points="37.6,108.6 56.4,119.5 56.4,97.8 	"/>
	<polygon class="st2" points="56.5,119.5 75.3,130.4 75.3,108.6 	"/>
	<polygon class="st3" points="75.3,108.6 56.4,97.8 56.4,119.5 	"/>
	<polygon class="st3" points="56.4,119.5 37.6,108.6 37.6,130.4 	"/>
	<polygon class="st1" points="37.6,130.4 56.4,141.2 56.4,119.5 	"/>
	<polygon class="st2" points="75.3,130.4 56.4,119.5 56.4,141.2 	"/>
	<polygon class="st2" points="75.3,108.6 94.1,119.5 94.1,97.8 	"/>
	<polygon class="st2" points="94.1,119.5 112.9,130.4 112.9,108.6 	"/>
	<polygon class="st1" points="112.9,108.6 94.1,97.8 94.1,119.5 	"/>
	<polygon class="st2" points="94.1,119.5 75.3,108.6 75.3,130.4 	"/>
	<polygon class="st3" points="75.3,130.4 94.1,141.2 94.1,119.5 	"/>
	<polygon class="st2" points="112.9,130.4 94.1,119.5 94.1,141.2 	"/>
	<polygon class="st2" points="112.9,108.6 131.7,119.5 131.7,97.8 	"/>
	<polygon class="st2" points="131.7,119.5 150.5,130.4 150.5,108.6 	"/>
	<polygon class="st2" points="150.5,108.6 131.7,97.8 131.7,119.5 	"/>
	<polygon class="st2" points="131.7,119.5 112.9,108.6 112.9,130.4 	"/>
	<polygon class="st0" points="112.9,130.4 131.7,141.2 131.7,119.5 	"/>
	<polygon class="st3" points="150.5,130.4 131.7,119.5 131.7,141.2 	"/>
	<polygon class="st3" points="150.5,108.6 169.3,119.5 169.3,97.8 	"/>
	<polygon class="st2" points="169.4,119.5 188.2,130.4 188.2,108.6 	"/>
	<polygon class="st2" points="188.2,108.6 169.3,97.8 169.3,119.5 	"/>
	<polygon class="st2" points="169.3,119.5 150.5,108.6 150.5,130.4 	"/>
	<polygon class="st1" points="150.5,130.4 169.3,141.2 169.3,119.5 	"/>
	<polygon class="st1" points="188.2,130.4 169.3,119.5 169.3,141.2 	"/>
	<polygon class="st2" points="188.2,108.6 207,119.5 207,97.8 	"/>
	<polygon class="st1" points="207,119.5 225.8,130.4 225.8,108.6 	"/>
	<polygon class="st0" points="225.8,108.6 207,97.8 207,119.5 	"/>
	<polygon class="st1" points="207,119.5 188.2,108.6 188.2,130.4 	"/>
	<polygon class="st1" points="188.2,130.4 207,141.2 207,119.5 	"/>
	<polygon class="st2" points="225.8,130.4 207,119.5 207,141.2 	"/>
	<polygon class="st1" points="225.8,108.6 244.6,119.5 244.6,97.8 	"/>
	<polygon class="st1" points="244.6,119.5 263.4,130.4 263.4,108.6 	"/>
	<polygon class="st2" points="263.4,108.6 244.6,97.8 244.6,119.5 	"/>
	<polygon class="st3" points="244.6,119.5 225.8,108.6 225.8,130.4 	"/>
	<polygon class="st3" points="225.8,130.4 244.6,141.2 244.6,119.5 	"/>
	<polygon class="st0" points="263.4,130.4 244.6,119.5 244.6,141.2 	"/>
	<polygon class="st2" points="263.4,108.6 282.2,119.5 282.2,97.8 	"/>
	<polygon class="st2" points="282.3,119.5 301.1,130.4 301.1,108.6 	"/>
	<polygon class="st2" points="301.1,108.6 282.2,97.8 282.2,119.5 	"/>
	<polygon class="st1" points="282.2,119.5 263.4,108.6 263.4,130.4 	"/>
	<polygon class="st0" points="263.4,130.4 282.2,141.2 282.2,119.5 	"/>
	<polygon class="st0" points="301.1,130.4 282.2,119.5 282.2,141.2 	"/>
	<polygon class="st1" points="301.1,108.6 319.9,119.5 319.9,97.8 	"/>
	<polygon class="st0" points="319.9,119.5 338.7,130.4 338.7,108.6 	"/>
	<polygon class="st2" points="338.7,108.6 319.9,97.8 319.9,119.5 	"/>
	<polygon class="st3" points="319.9,119.5 301.1,108.6 301.1,130.4 	"/>
	<polygon class="st2" points="301.1,130.4 319.9,141.2 319.9,119.5 	"/>
	<polygon class="st2" points="338.7,130.4 319.9,119.5 319.9,141.2 	"/>
	<polygon class="st2" points="338.7,108.6 357.5,119.5 357.5,97.8 	"/>
	<polygon class="st0" points="357.5,119.5 376.3,130.4 376.3,108.6 	"/>
	<polygon class="st2" points="376.3,108.6 357.5,97.8 357.5,119.5 	"/>
	<polygon class="st1" points="357.5,119.5 338.7,108.6 338.7,130.4 	"/>
	<polygon class="st0" points="338.7,130.4 357.5,141.2 357.5,119.5 	"/>
	<polygon class="st0" points="376.3,130.4 357.5,119.5 357.5,141.2 	"/>
	<polygon class="st1" points="376.3,108.6 395.1,119.5 395.1,97.8 	"/>
	<polygon class="st1" points="395.2,119.5 414,130.4 414,108.6 	"/>
	<polygon class="st2" points="414,108.6 395.1,97.8 395.1,119.5 	"/>
	<polygon class="st0" points="395.1,119.5 376.3,108.6 376.3,130.4 	"/>
	<polygon class="st3" points="376.3,130.4 395.1,141.2 395.1,119.5 	"/>
	<polygon class="st2" points="414,130.4 395.1,119.5 395.1,141.2 	"/>
	<polygon class="st1" points="414,108.6 432.8,119.5 432.8,97.8 	"/>
	<polygon class="st2" points="432.8,119.5 451.6,130.4 451.6,108.6 	"/>
	<polygon class="st2" points="451.6,108.6 432.8,97.8 432.8,119.5 	"/>
	<polygon class="st0" points="432.8,119.5 414,108.6 414,130.4 	"/>
	<polygon class="st1" points="414,130.4 432.8,141.2 432.8,119.5 	"/>
	<polygon class="st0" points="451.6,130.4 432.8,119.5 432.8,141.2 	"/>
	<polygon class="st3" points="18.8,141.2 37.6,152.1 37.6,130.4 	"/>
	<polygon class="st2" points="37.6,152.1 56.5,163 56.5,141.2 	"/>
	<polygon class="st1" points="56.4,141.2 37.6,130.4 37.6,152.1 	"/>
	<polygon class="st3" points="37.6,152.1 18.8,141.2 18.8,163 	"/>
	<polygon class="st2" points="18.8,163 37.6,173.8 37.6,152.1 	"/>
	<polygon class="st1" points="56.4,163 37.6,152.1 37.6,173.8 	"/>
	<polygon class="st1" points="56.4,141.2 75.3,152.1 75.3,130.4 	"/>
	<polygon class="st2" points="75.3,152.1 94.1,163 94.1,141.2 	"/>
	<polygon class="st2" points="94.1,141.2 75.3,130.4 75.3,152.1 	"/>
	<polygon class="st0" points="75.3,152.1 56.4,141.2 56.4,163 	"/>
	<polygon class="st0" points="56.4,163 75.3,173.8 75.3,152.1 	"/>
	<polygon class="st0" points="94.1,163 75.3,152.1 75.3,173.8 	"/>
	<polygon class="st1" points="94.1,141.2 112.9,152.1 112.9,130.4 	"/>
	<polygon class="st2" points="112.9,152.1 131.7,163 131.7,141.2 	"/>
	<polygon class="st1" points="131.7,141.2 112.9,130.4 112.9,152.1 	"/>
	<polygon class="st2" points="112.9,152.1 94.1,141.2 94.1,163 	"/>
	<polygon class="st1" points="94.1,163 112.9,173.8 112.9,152.1 	"/>
	<polygon class="st1" points="131.7,163 112.9,152.1 112.9,173.8 	"/>
	<polygon class="st3" points="131.7,141.2 150.5,152.1 150.5,130.4 	"/>
	<polygon class="st2" points="150.5,152.1 169.4,163 169.4,141.2 	"/>
	<polygon class="st1" points="169.3,141.2 150.5,130.4 150.5,152.1 	"/>
	<polygon class="st3" points="150.5,152.1 131.7,141.2 131.7,163 	"/>
	<polygon class="st2" points="131.7,163 150.5,173.8 150.5,152.1 	"/>
	<polygon class="st1" points="169.3,163 150.5,152.1 150.5,173.8 	"/>
	<polygon class="st2" points="169.3,141.2 188.2,152.1 188.2,130.4 	"/>
	<polygon class="st2" points="188.2,152.1 207,163 207,141.2 	"/>
	<polygon class="st3" points="207,141.2 188.2,130.4 188.2,152.1 	"/>
	<polygon class="st2" points="188.2,152.1 169.3,141.2 169.3,163 	"/>
	<polygon class="st2" points="169.3,163 188.2,173.8 188.2,152.1 	"/>
	<polygon class="st1" points="207,163 188.2,152.1 188.2,173.8 	"/>
	<polygon class="st2" points="207,141.2 225.8,152.1 225.8,130.4 	"/>
	<polygon class="st0" points="225.8,152.1 244.6,163 244.6,141.2 	"/>
	<polygon class="st2" points="244.6,141.2 225.8,130.4 225.8,152.1 	"/>
	<polygon class="st0" points="225.8,152.1 207,141.2 207,163 	"/>
	<polygon class="st2" points="207,163 225.8,173.8 225.8,152.1 	"/>
	<polygon class="st0" points="244.6,163 225.8,152.1 225.8,173.8 	"/>
	<polygon class="st2" points="244.6,141.2 263.4,152.1 263.4,130.4 	"/>
	<polygon class="st3" points="263.4,152.1 282.3,163 282.3,141.2 	"/>
	<polygon class="st1" points="282.2,141.2 263.4,130.4 263.4,152.1 	"/>
	<polygon class="st1" points="263.4,152.1 244.6,141.2 244.6,163 	"/>
	<polygon class="st2" points="244.6,163 263.4,173.8 263.4,152.1 	"/>
	<polygon class="st0" points="282.2,163 263.4,152.1 263.4,173.8 	"/>
	<polygon class="st2" points="282.2,141.2 301.1,152.1 301.1,130.4 	"/>
	<polygon class="st1" points="301.1,152.1 319.9,163 319.9,141.2 	"/>
	<polygon class="st2" points="319.9,141.2 301.1,130.4 301.1,152.1 	"/>
	<polygon class="st0" points="301.1,152.1 282.2,141.2 282.2,163 	"/>
	<polygon class="st2" points="282.2,163 301.1,173.8 301.1,152.1 	"/>
	<polygon class="st0" points="319.9,163 301.1,152.1 301.1,173.8 	"/>
	<polygon class="st2" points="319.9,141.2 338.7,152.1 338.7,130.4 	"/>
	<polygon class="st2" points="338.7,152.1 357.5,163 357.5,141.2 	"/>
	<polygon class="st2" points="357.5,141.2 338.7,130.4 338.7,152.1 	"/>
	<polygon class="st0" points="338.7,152.1 319.9,141.2 319.9,163 	"/>
	<polygon class="st2" points="319.9,163 338.7,173.8 338.7,152.1 	"/>
	<polygon class="st2" points="357.5,163 338.7,152.1 338.7,173.8 	"/>
	<polygon class="st2" points="357.5,141.2 376.3,152.1 376.3,130.4 	"/>
	<polygon class="st2" points="376.3,152.1 395.2,163 395.2,141.2 	"/>
	<polygon class="st3" points="395.1,141.2 376.3,130.4 376.3,152.1 	"/>
	<polygon class="st0" points="376.3,152.1 357.5,141.2 357.5,163 	"/>
	<polygon class="st0" points="357.5,163 376.3,173.8 376.3,152.1 	"/>
	<polygon class="st2" points="395.1,163 376.3,152.1 376.3,173.8 	"/>
	<polygon class="st0" points="395.1,141.2 414,152.1 414,130.4 	"/>
	<polygon class="st1" points="414,152.1 432.8,163 432.8,141.2 	"/>
	<polygon class="st2" points="432.8,141.2 414,130.4 414,152.1 	"/>
	<polygon class="st3" points="414,152.1 395.1,141.2 395.1,163 	"/>
	<polygon class="st0" points="395.1,163 414,173.8 414,152.1 	"/>
	<polygon class="st2" points="432.8,163 414,152.1 414,173.8 	"/>
	<polygon class="st2" points="432.8,141.2 451.6,152.1 451.6,130.4 	"/>
	<polygon class="st2" points="451.6,152.1 470.4,163 470.4,141.2 	"/>
	<polygon class="st0" points="470.4,141.2 451.6,130.4 451.6,152.1 	"/>
	<polygon class="st3" points="451.6,152.1 432.8,141.2 432.8,163 	"/>
	<polygon class="st2" points="432.8,163 451.6,173.8 451.6,152.1 	"/>
	<polygon class="st3" points="470.4,163 451.6,152.1 451.6,173.8 	"/>
	<polygon class="st2" points="0,173.8 18.8,184.7 18.8,163 	"/>
	<polygon class="st1" points="18.8,184.7 37.6,195.5 37.6,173.8 	"/>
	<polygon class="st0" points="37.6,173.8 18.8,163 18.8,184.7 	"/>
	<polygon class="st2" points="18.8,184.7 0,173.8 0,195.5 	"/>
	<polygon class="st0" points="0,195.5 18.8,206.4 18.8,184.7 	"/>
	<polygon class="st1" points="37.6,195.5 18.8,184.7 18.8,206.4 	"/>
	<polygon class="st1" points="37.6,173.8 56.4,184.7 56.4,163 	"/>
	<polygon class="st1" points="56.5,184.7 75.3,195.5 75.3,173.8 	"/>
	<polygon class="st0" points="75.3,173.8 56.4,163 56.4,184.7 	"/>
	<polygon class="st1" points="56.4,184.7 37.6,173.8 37.6,195.5 	"/>
	<polygon class="st2" points="37.6,195.5 56.4,206.4 56.4,184.7 	"/>
	<polygon class="st1" points="75.3,195.5 56.4,184.7 56.4,206.4 	"/>
	<polygon class="st1" points="75.3,173.8 94.1,184.7 94.1,163 	"/>
	<polygon class="st3" points="94.1,184.7 112.9,195.5 112.9,173.8 	"/>
	<polygon class="st1" points="112.9,173.8 94.1,163 94.1,184.7 	"/>
	<polygon class="st1" points="94.1,184.7 75.3,173.8 75.3,195.5 	"/>
	<polygon class="st3" points="75.3,195.5 94.1,206.4 94.1,184.7 	"/>
	<polygon class="st2" points="112.9,195.5 94.1,184.7 94.1,206.4 	"/>
	<polygon class="st2" points="112.9,173.8 131.7,184.7 131.7,163 	"/>
	<polygon class="st2" points="131.7,184.7 150.5,195.5 150.5,173.8 	"/>
	<polygon class="st1" points="150.5,173.8 131.7,163 131.7,184.7 	"/>
	<polygon class="st2" points="131.7,184.7 112.9,173.8 112.9,195.5 	"/>
	<polygon class="st1" points="112.9,195.5 131.7,206.4 131.7,184.7 	"/>
	<polygon class="st2" points="150.5,195.5 131.7,184.7 131.7,206.4 	"/>
	<polygon class="st1" points="150.5,173.8 169.3,184.7 169.3,163 	"/>
	<polygon class="st3" points="169.4,184.7 188.2,195.5 188.2,173.8 	"/>
	<polygon class="st2" points="188.2,173.8 169.3,163 169.3,184.7 	"/>
	<polygon class="st2" points="169.3,184.7 150.5,173.8 150.5,195.5 	"/>
	<polygon class="st2" points="150.5,195.5 169.3,206.4 169.3,184.7 	"/>
	<polygon class="st0" points="188.2,195.5 169.3,184.7 169.3,206.4 	"/>
	<polygon class="st0" points="188.2,173.8 207,184.7 207,163 	"/>
	<polygon class="st1" points="207,184.7 225.8,195.5 225.8,173.8 	"/>
	<polygon class="st1" points="225.8,173.8 207,163 207,184.7 	"/>
	<polygon class="st0" points="207,184.7 188.2,173.8 188.2,195.5 	"/>
	<polygon class="st0" points="188.2,195.5 207,206.4 207,184.7 	"/>
	<polygon class="st3" points="225.8,195.5 207,184.7 207,206.4 	"/>
	<polygon class="st1" points="225.8,173.8 244.6,184.7 244.6,163 	"/>
	<polygon class="st2" points="244.6,184.7 263.4,195.5 263.4,173.8 	"/>
	<polygon class="st1" points="263.4,173.8 244.6,163 244.6,184.7 	"/>
	<polygon class="st0" points="244.6,184.7 225.8,173.8 225.8,195.5 	"/>
	<polygon class="st3" points="225.8,195.5 244.6,206.4 244.6,184.7 	"/>
	<polygon class="st1" points="263.4,195.5 244.6,184.7 244.6,206.4 	"/>
	<polygon class="st3" points="263.4,173.8 282.2,184.7 282.2,163 	"/>
	<polygon class="st3" points="282.3,184.7 301.1,195.5 301.1,173.8 	"/>
	<polygon class="st1" points="301.1,173.8 282.2,163 282.2,184.7 	"/>
	<polygon class="st2" points="282.2,184.7 263.4,173.8 263.4,195.5 	"/>
	<polygon class="st2" points="263.4,195.5 282.2,206.4 282.2,184.7 	"/>
	<polygon class="st2" points="301.1,195.5 282.2,184.7 282.2,206.4 	"/>
	<polygon class="st2" points="301.1,173.8 319.9,184.7 319.9,163 	"/>
	<polygon class="st0" points="319.9,184.7 338.7,195.5 338.7,173.8 	"/>
	<polygon class="st3" points="338.7,173.8 319.9,163 319.9,184.7 	"/>
	<polygon class="st2" points="319.9,184.7 301.1,173.8 301.1,195.5 	"/>
	<polygon class="st0" points="301.1,195.5 319.9,206.4 319.9,184.7 	"/>
	<polygon class="st3" points="338.7,195.5 319.9,184.7 319.9,206.4 	"/>
	<polygon class="st0" points="338.7,173.8 357.5,184.7 357.5,163 	"/>
	<polygon class="st1" points="357.5,184.7 376.3,195.5 376.3,173.8 	"/>
	<polygon class="st1" points="376.3,173.8 357.5,163 357.5,184.7 	"/>
	<polygon class="st0" points="357.5,184.7 338.7,173.8 338.7,195.5 	"/>
	<polygon class="st2" points="338.7,195.5 357.5,206.4 357.5,184.7 	"/>
	<polygon class="st1" points="376.3,195.5 357.5,184.7 357.5,206.4 	"/>
	<polygon class="st1" points="376.3,173.8 395.1,184.7 395.1,163 	"/>
	<polygon class="st3" points="395.2,184.7 414,195.5 414,173.8 	"/>
	<polygon class="st3" points="414,173.8 395.1,163 395.1,184.7 	"/>
	<polygon class="st3" points="395.1,184.7 376.3,173.8 376.3,195.5 	"/>
	<polygon class="st0" points="376.3,195.5 395.1,206.4 395.1,184.7 	"/>
	<polygon class="st2" points="414,195.5 395.1,184.7 395.1,206.4 	"/>
	<polygon class="st2" points="414,173.8 432.8,184.7 432.8,163 	"/>
	<polygon class="st3" points="432.8,184.7 451.6,195.5 451.6,173.8 	"/>
	<polygon class="st0" points="451.6,173.8 432.8,163 432.8,184.7 	"/>
	<polygon class="st1" points="432.8,184.7 414,173.8 414,195.5 	"/>
	<polygon class="st1" points="414,195.5 432.8,206.4 432.8,184.7 	"/>
	<polygon class="st2" points="451.6,195.5 432.8,184.7 432.8,206.4 	"/>
	<polygon class="st0" points="18.8,206.4 37.6,217.3 37.6,195.5 	"/>
	<polygon class="st2" points="37.6,217.3 56.5,228.1 56.5,206.4 	"/>
	<polygon class="st1" points="56.4,206.4 37.6,195.5 37.6,217.3 	"/>
	<polygon class="st3" points="37.6,217.3 18.8,206.4 18.8,228.1 	"/>
	<polygon class="st0" points="18.8,228.1 37.6,239 37.6,217.3 	"/>
	<polygon class="st2" points="56.4,228.1 37.6,217.3 37.6,239 	"/>
	<polygon class="st3" points="56.4,206.4 75.3,217.3 75.3,195.5 	"/>
	<polygon class="st3" points="75.3,217.3 94.1,228.1 94.1,206.4 	"/>
	<polygon class="st1" points="94.1,206.4 75.3,195.5 75.3,217.3 	"/>
	<polygon class="st1" points="75.3,217.3 56.4,206.4 56.4,228.1 	"/>
	<polygon class="st1" points="56.4,228.1 75.3,239 75.3,217.3 	"/>
	<polygon class="st1" points="94.1,228.1 75.3,217.3 75.3,239 	"/>
	<polygon class="st1" points="94.1,206.4 112.9,217.3 112.9,195.5 	"/>
	<polygon class="st1" points="112.9,217.3 131.7,228.1 131.7,206.4 	"/>
	<polygon class="st0" points="131.7,206.4 112.9,195.5 112.9,217.3 	"/>
	<polygon class="st1" points="112.9,217.3 94.1,206.4 94.1,228.1 	"/>
	<polygon class="st2" points="94.1,228.1 112.9,239 112.9,217.3 	"/>
	<polygon class="st1" points="131.7,228.1 112.9,217.3 112.9,239 	"/>
	<polygon class="st2" points="131.7,206.4 150.5,217.3 150.5,195.5 	"/>
	<polygon class="st2" points="150.5,217.3 169.4,228.1 169.4,206.4 	"/>
	<polygon class="st1" points="169.3,206.4 150.5,195.5 150.5,217.3 	"/>
	<polygon class="st3" points="150.5,217.3 131.7,206.4 131.7,228.1 	"/>
	<polygon class="st2" points="131.7,228.1 150.5,239 150.5,217.3 	"/>
	<polygon class="st1" points="169.3,228.1 150.5,217.3 150.5,239 	"/>
	<polygon class="st1" points="169.3,206.4 188.2,217.3 188.2,195.5 	"/>
	<polygon class="st1" points="188.2,217.3 207,228.1 207,206.4 	"/>
	<polygon class="st1" points="207,206.4 188.2,195.5 188.2,217.3 	"/>
	<polygon class="st1" points="188.2,217.3 169.3,206.4 169.3,228.1 	"/>
	<polygon class="st2" points="169.3,228.1 188.2,239 188.2,217.3 	"/>
	<polygon class="st1" points="207,228.1 188.2,217.3 188.2,239 	"/>
	<polygon class="st2" points="207,206.4 225.8,217.3 225.8,195.5 	"/>
	<polygon class="st2" points="225.8,217.3 244.6,228.1 244.6,206.4 	"/>
	<polygon class="st0" points="244.6,206.4 225.8,195.5 225.8,217.3 	"/>
	<polygon class="st1" points="225.8,217.3 207,206.4 207,228.1 	"/>
	<polygon class="st1" points="207,228.1 225.8,239 225.8,217.3 	"/>
	<polygon class="st2" points="244.6,228.1 225.8,217.3 225.8,239 	"/>
	<polygon class="st1" points="244.6,206.4 263.4,217.3 263.4,195.5 	"/>
	<polygon class="st2" points="263.4,217.3 282.3,228.1 282.3,206.4 	"/>
	<polygon class="st1" points="282.2,206.4 263.4,195.5 263.4,217.3 	"/>
	<polygon class="st2" points="263.4,217.3 244.6,206.4 244.6,228.1 	"/>
	<polygon class="st2" points="244.6,228.1 263.4,239 263.4,217.3 	"/>
	<polygon class="st1" points="282.2,228.1 263.4,217.3 263.4,239 	"/>
	<polygon class="st3" points="282.2,206.4 301.1,217.3 301.1,195.5 	"/>
	<polygon class="st2" points="301.1,217.3 319.9,228.1 319.9,206.4 	"/>
	<polygon class="st0" points="319.9,206.4 301.1,195.5 301.1,217.3 	"/>
	<polygon class="st2" points="301.1,217.3 282.2,206.4 282.2,228.1 	"/>
	<polygon class="st0" points="282.2,228.1 301.1,239 301.1,217.3 	"/>
	<polygon class="st1" points="319.9,228.1 301.1,217.3 301.1,239 	"/>
	<polygon class="st2" points="319.9,206.4 338.7,217.3 338.7,195.5 	"/>
	<polygon class="st0" points="338.7,217.3 357.5,228.1 357.5,206.4 	"/>
	<polygon class="st0" points="357.5,206.4 338.7,195.5 338.7,217.3 	"/>
	<polygon class="st3" points="338.7,217.3 319.9,206.4 319.9,228.1 	"/>
	<polygon class="st1" points="319.9,228.1 338.7,239 338.7,217.3 	"/>
	<polygon class="st0" points="357.5,228.1 338.7,217.3 338.7,239 	"/>
	<polygon class="st1" points="357.5,206.4 376.3,217.3 376.3,195.5 	"/>
	<polygon class="st1" points="376.3,217.3 395.2,228.1 395.2,206.4 	"/>
	<polygon class="st1" points="395.1,206.4 376.3,195.5 376.3,217.3 	"/>
	<polygon class="st1" points="376.3,217.3 357.5,206.4 357.5,228.1 	"/>
	<polygon class="st2" points="357.5,228.1 376.3,239 376.3,217.3 	"/>
	<polygon class="st1" points="395.1,228.1 376.3,217.3 376.3,239 	"/>
	<polygon class="st0" points="395.1,206.4 414,217.3 414,195.5 	"/>
	<polygon class="st3" points="414,217.3 432.8,228.1 432.8,206.4 	"/>
	<polygon class="st1" points="432.8,206.4 414,195.5 414,217.3 	"/>
	<polygon class="st1" points="414,217.3 395.1,206.4 395.1,228.1 	"/>
	<polygon class="st1" points="395.1,228.1 414,239 414,217.3 	"/>
	<polygon class="st3" points="432.8,228.1 414,217.3 414,239 	"/>
	<polygon class="st3" points="432.8,206.4 451.6,217.3 451.6,195.5 	"/>
	<polygon class="st1" points="451.6,217.3 470.4,228.1 470.4,206.4 	"/>
	<polygon class="st1" points="470.4,206.4 451.6,195.5 451.6,217.3 	"/>
	<polygon class="st2" points="451.6,217.3 432.8,206.4 432.8,228.1 	"/>
	<polygon class="st2" points="432.8,228.1 451.6,239 451.6,217.3 	"/>
	<polygon class="st0" points="470.4,228.1 451.6,217.3 451.6,239 	"/>
	<polygon class="st2" points="0,239 18.8,249.9 18.8,228.1 	"/>
	<polygon class="st0" points="18.8,249.9 37.6,260.7 37.6,239 	"/>
	<polygon class="st1" points="37.6,239 18.8,228.1 18.8,249.9 	"/>
	<polygon class="st2" points="18.8,249.9 0,239 0,260.7 	"/>
	<polygon class="st2" points="0,260.7 18.8,271.6 18.8,249.9 	"/>
	<polygon class="st2" points="37.6,260.7 18.8,249.9 18.8,271.6 	"/>
	<polygon class="st3" points="37.6,239 56.4,249.9 56.4,228.1 	"/>
	<polygon class="st2" points="56.5,249.9 75.3,260.7 75.3,239 	"/>
	<polygon class="st0" points="75.3,239 56.4,228.1 56.4,249.9 	"/>
	<polygon class="st2" points="56.4,249.9 37.6,239 37.6,260.7 	"/>
	<polygon class="st2" points="37.6,260.7 56.4,271.6 56.4,249.9 	"/>
	<polygon class="st2" points="75.3,260.7 56.4,249.9 56.4,271.6 	"/>
	<polygon class="st2" points="75.3,239 94.1,249.9 94.1,228.1 	"/>
	<polygon class="st0" points="94.1,249.9 112.9,260.7 112.9,239 	"/>
	<polygon class="st3" points="112.9,239 94.1,228.1 94.1,249.9 	"/>
	<polygon class="st2" points="94.1,249.9 75.3,239 75.3,260.7 	"/>
	<polygon class="st1" points="75.3,260.7 94.1,271.6 94.1,249.9 	"/>
	<polygon class="st2" points="112.9,260.7 94.1,249.9 94.1,271.6 	"/>
	<polygon class="st3" points="112.9,239 131.7,249.9 131.7,228.1 	"/>
	<polygon class="st3" points="131.7,249.9 150.5,260.7 150.5,239 	"/>
	<polygon class="st3" points="150.5,239 131.7,228.1 131.7,249.9 	"/>
	<polygon class="st1" points="131.7,249.9 112.9,239 112.9,260.7 	"/>
	<polygon class="st3" points="112.9,260.7 131.7,271.6 131.7,249.9 	"/>
	<polygon class="st3" points="150.5,260.7 131.7,249.9 131.7,271.6 	"/>
	<polygon class="st0" points="150.5,239 169.3,249.9 169.3,228.1 	"/>
	<polygon class="st0" points="169.4,249.9 188.2,260.7 188.2,239 	"/>
	<polygon class="st3" points="188.2,239 169.3,228.1 169.3,249.9 	"/>
	<polygon class="st3" points="169.3,249.9 150.5,239 150.5,260.7 	"/>
	<polygon class="st1" points="150.5,260.7 169.3,271.6 169.3,249.9 	"/>
	<polygon class="st2" points="188.2,260.7 169.3,249.9 169.3,271.6 	"/>
	<polygon class="st1" points="188.2,239 207,249.9 207,228.1 	"/>
	<polygon class="st1" points="207,249.9 225.8,260.7 225.8,239 	"/>
	<polygon class="st0" points="225.8,239 207,228.1 207,249.9 	"/>
	<polygon class="st0" points="207,249.9 188.2,239 188.2,260.7 	"/>
	<polygon class="st3" points="188.2,260.7 207,271.6 207,249.9 	"/>
	<polygon class="st2" points="225.8,260.7 207,249.9 207,271.6 	"/>
	<polygon class="st2" points="225.8,239 244.6,249.9 244.6,228.1 	"/>
	<polygon class="st2" points="244.6,249.9 263.4,260.7 263.4,239 	"/>
	<polygon class="st0" points="263.4,239 244.6,228.1 244.6,249.9 	"/>
	<polygon class="st0" points="244.6,249.9 225.8,239 225.8,260.7 	"/>
	<polygon class="st2" points="225.8,260.7 244.6,271.6 244.6,249.9 	"/>
	<polygon class="st2" points="263.4,260.7 244.6,249.9 244.6,271.6 	"/>
	<polygon class="st2" points="263.4,239 282.2,249.9 282.2,228.1 	"/>
	<polygon class="st1" points="282.3,249.9 301.1,260.7 301.1,239 	"/>
	<polygon class="st1" points="301.1,239 282.2,228.1 282.2,249.9 	"/>
	<polygon class="st0" points="282.2,249.9 263.4,239 263.4,260.7 	"/>
	<polygon class="st1" points="263.4,260.7 282.2,271.6 282.2,249.9 	"/>
	<polygon class="st2" points="301.1,260.7 282.2,249.9 282.2,271.6 	"/>
	<polygon class="st1" points="301.1,239 319.9,249.9 319.9,228.1 	"/>
	<polygon class="st1" points="319.9,249.9 338.7,260.7 338.7,239 	"/>
	<polygon class="st2" points="338.7,239 319.9,228.1 319.9,249.9 	"/>
	<polygon class="st3" points="319.9,249.9 301.1,239 301.1,260.7 	"/>
	<polygon class="st1" points="301.1,260.7 319.9,271.6 319.9,249.9 	"/>
	<polygon class="st1" points="338.7,260.7 319.9,249.9 319.9,271.6 	"/>
	<polygon class="st1" points="338.7,239 357.5,249.9 357.5,228.1 	"/>
	<polygon class="st2" points="357.5,249.9 376.3,260.7 376.3,239 	"/>
	<polygon class="st2" points="376.3,239 357.5,228.1 357.5,249.9 	"/>
	<polygon class="st2" points="357.5,249.9 338.7,239 338.7,260.7 	"/>
	<polygon class="st3" points="338.7,260.7 357.5,271.6 357.5,249.9 	"/>
	<polygon class="st2" points="376.3,260.7 357.5,249.9 357.5,271.6 	"/>
	<polygon class="st0" points="376.3,239 395.1,249.9 395.1,228.1 	"/>
	<polygon class="st1" points="395.2,249.9 414,260.7 414,239 	"/>
	<polygon class="st3" points="414,239 395.1,228.1 395.1,249.9 	"/>
	<polygon class="st2" points="395.1,249.9 376.3,239 376.3,260.7 	"/>
	<polygon class="st1" points="376.3,260.7 395.1,271.6 395.1,249.9 	"/>
	<polygon class="st2" points="414,260.7 395.1,249.9 395.1,271.6 	"/>
	<polygon class="st1" points="414,239 432.8,249.9 432.8,228.1 	"/>
	<polygon class="st2" points="432.8,249.9 451.6,260.7 451.6,239 	"/>
	<polygon class="st1" points="451.6,239 432.8,228.1 432.8,249.9 	"/>
	<polygon class="st0" points="432.8,249.9 414,239 414,260.7 	"/>
	<polygon class="st1" points="414,260.7 432.8,271.6 432.8,249.9 	"/>
	<polygon class="st1" points="451.6,260.7 432.8,249.9 432.8,271.6 	"/>
	<polygon class="st1" points="18.8,271.6 37.6,282.5 37.6,260.7 	"/>
	<polygon class="st0" points="37.6,282.5 56.5,293.3 56.5,271.6 	"/>
	<polygon class="st3" points="56.4,271.6 37.6,260.7 37.6,282.5 	"/>
	<polygon class="st3" points="37.6,282.5 18.8,271.6 18.8,293.3 	"/>
	<polygon class="st1" points="18.8,293.3 37.6,304.2 37.6,282.5 	"/>
	<polygon class="st1" points="56.4,293.3 37.6,282.5 37.6,304.2 	"/>
	<polygon class="st0" points="56.4,271.6 75.3,282.5 75.3,260.7 	"/>
	<polygon class="st1" points="75.3,282.5 94.1,293.3 94.1,271.6 	"/>
	<polygon class="st2" points="94.1,271.6 75.3,260.7 75.3,282.5 	"/>
	<polygon class="st1" points="75.3,282.5 56.4,271.6 56.4,293.3 	"/>
	<polygon class="st0" points="56.4,293.3 75.3,304.2 75.3,282.5 	"/>
	<polygon class="st2" points="94.1,293.3 75.3,282.5 75.3,304.2 	"/>
	<polygon class="st1" points="94.1,271.6 112.9,282.5 112.9,260.7 	"/>
	<polygon class="st2" points="112.9,282.5 131.7,293.3 131.7,271.6 	"/>
	<polygon class="st3" points="131.7,271.6 112.9,260.7 112.9,282.5 	"/>
	<polygon class="st2" points="112.9,282.5 94.1,271.6 94.1,293.3 	"/>
	<polygon class="st3" points="94.1,293.3 112.9,304.2 112.9,282.5 	"/>
	<polygon class="st2" points="131.7,293.3 112.9,282.5 112.9,304.2 	"/>
	<polygon class="st1" points="131.7,271.6 150.5,282.5 150.5,260.7 	"/>
	<polygon class="st3" points="150.5,282.5 169.4,293.3 169.4,271.6 	"/>
	<polygon class="st0" points="169.3,271.6 150.5,260.7 150.5,282.5 	"/>
	<polygon class="st3" points="150.5,282.5 131.7,271.6 131.7,293.3 	"/>
	<polygon class="st1" points="131.7,293.3 150.5,304.2 150.5,282.5 	"/>
	<polygon class="st2" points="169.3,293.3 150.5,282.5 150.5,304.2 	"/>
	<polygon class="st1" points="169.3,271.6 188.2,282.5 188.2,260.7 	"/>
	<polygon class="st1" points="188.2,282.5 207,293.3 207,271.6 	"/>
	<polygon class="st1" points="207,271.6 188.2,260.7 188.2,282.5 	"/>
	<polygon class="st2" points="188.2,282.5 169.3,271.6 169.3,293.3 	"/>
	<polygon class="st0" points="169.3,293.3 188.2,304.2 188.2,282.5 	"/>
	<polygon class="st3" points="207,293.3 188.2,282.5 188.2,304.2 	"/>
	<polygon class="st0" points="207,271.6 225.8,282.5 225.8,260.7 	"/>
	<polygon class="st2" points="225.8,282.5 244.6,293.3 244.6,271.6 	"/>
	<polygon class="st2" points="244.6,271.6 225.8,260.7 225.8,282.5 	"/>
	<polygon class="st3" points="225.8,282.5 207,271.6 207,293.3 	"/>
	<polygon class="st1" points="207,293.3 225.8,304.2 225.8,282.5 	"/>
	<polygon class="st1" points="244.6,293.3 225.8,282.5 225.8,304.2 	"/>
	<polygon class="st1" points="244.6,271.6 263.4,282.5 263.4,260.7 	"/>
	<polygon class="st2" points="263.4,282.5 282.3,293.3 282.3,271.6 	"/>
	<polygon class="st1" points="282.2,271.6 263.4,260.7 263.4,282.5 	"/>
	<polygon class="st3" points="263.4,282.5 244.6,271.6 244.6,293.3 	"/>
	<polygon class="st1" points="244.6,293.3 263.4,304.2 263.4,282.5 	"/>
	<polygon class="st1" points="282.2,293.3 263.4,282.5 263.4,304.2 	"/>
	<polygon class="st2" points="282.2,271.6 301.1,282.5 301.1,260.7 	"/>
	<polygon class="st3" points="301.1,282.5 319.9,293.3 319.9,271.6 	"/>
	<polygon class="st2" points="319.9,271.6 301.1,260.7 301.1,282.5 	"/>
	<polygon class="st1" points="301.1,282.5 282.2,271.6 282.2,293.3 	"/>
	<polygon class="st0" points="282.2,293.3 301.1,304.2 301.1,282.5 	"/>
	<polygon class="st3" points="319.9,293.3 301.1,282.5 301.1,304.2 	"/>
	<polygon class="st3" points="319.9,271.6 338.7,282.5 338.7,260.7 	"/>
	<polygon class="st2" points="338.7,282.5 357.5,293.3 357.5,271.6 	"/>
	<polygon class="st2" points="357.5,271.6 338.7,260.7 338.7,282.5 	"/>
	<polygon class="st2" points="338.7,282.5 319.9,271.6 319.9,293.3 	"/>
	<polygon class="st3" points="319.9,293.3 338.7,304.2 338.7,282.5 	"/>
	<polygon class="st2" points="357.5,293.3 338.7,282.5 338.7,304.2 	"/>
	<polygon class="st1" points="357.5,271.6 376.3,282.5 376.3,260.7 	"/>
	<polygon class="st1" points="376.3,282.5 395.2,293.3 395.2,271.6 	"/>
	<polygon class="st3" points="395.1,271.6 376.3,260.7 376.3,282.5 	"/>
	<polygon class="st2" points="376.3,282.5 357.5,271.6 357.5,293.3 	"/>
	<polygon class="st1" points="357.5,293.3 376.3,304.2 376.3,282.5 	"/>
	<polygon class="st2" points="395.1,293.3 376.3,282.5 376.3,304.2 	"/>
	<polygon class="st0" points="395.1,271.6 414,282.5 414,260.7 	"/>
	<polygon class="st2" points="414,282.5 432.8,293.3 432.8,271.6 	"/>
	<polygon class="st2" points="432.8,271.6 414,260.7 414,282.5 	"/>
	<polygon class="st3" points="414,282.5 395.1,271.6 395.1,293.3 	"/>
	<polygon class="st3" points="395.1,293.3 414,304.2 414,282.5 	"/>
	<polygon class="st0" points="432.8,293.3 414,282.5 414,304.2 	"/>
	<polygon class="st3" points="432.8,271.6 451.6,282.5 451.6,260.7 	"/>
	<polygon class="st1" points="451.6,282.5 470.4,293.3 470.4,271.6 	"/>
	<polygon class="st0" points="470.4,271.6 451.6,260.7 451.6,282.5 	"/>
	<polygon class="st2" points="451.6,282.5 432.8,271.6 432.8,293.3 	"/>
	<polygon class="st1" points="432.8,293.3 451.6,304.2 451.6,282.5 	"/>
	<polygon class="st2" points="470.4,293.3 451.6,282.5 451.6,304.2 	"/>
	<polygon class="st2" points="0,304.2 18.8,315 18.8,293.3 	"/>
	<polygon class="st0" points="18.8,315 37.6,325.9 37.6,304.2 	"/>
	<polygon class="st1" points="37.6,304.2 18.8,293.3 18.8,315 	"/>
	<polygon class="st1" points="18.8,315 0,304.2 0,325.9 	"/>
	<polygon class="st2" points="0,325.9 18.8,336.8 18.8,315 	"/>
	<polygon class="st1" points="37.6,325.9 18.8,315 18.8,336.8 	"/>
	<polygon class="st1" points="37.6,304.2 56.4,315 56.4,293.3 	"/>
	<polygon class="st0" points="56.5,315 75.3,325.9 75.3,304.2 	"/>
	<polygon class="st2" points="75.3,304.2 56.4,293.3 56.4,315 	"/>
	<polygon class="st3" points="56.4,315 37.6,304.2 37.6,325.9 	"/>
	<polygon class="st1" points="37.6,325.9 56.4,336.8 56.4,315 	"/>
	<polygon class="st1" points="75.3,325.9 56.4,315 56.4,336.8 	"/>
	<polygon class="st3" points="75.3,304.2 94.1,315 94.1,293.3 	"/>
	<polygon class="st3" points="94.1,315 112.9,325.9 112.9,304.2 	"/>
	<polygon class="st1" points="112.9,304.2 94.1,293.3 94.1,315 	"/>
	<polygon class="st3" points="94.1,315 75.3,304.2 75.3,325.9 	"/>
	<polygon class="st0" points="75.3,325.9 94.1,336.8 94.1,315 	"/>
	<polygon class="st2" points="112.9,325.9 94.1,315 94.1,336.8 	"/>
	<polygon class="st2" points="112.9,304.2 131.7,315 131.7,293.3 	"/>
	<polygon class="st1" points="131.7,315 150.5,325.9 150.5,304.2 	"/>
	<polygon class="st0" points="150.5,304.2 131.7,293.3 131.7,315 	"/>
	<polygon class="st1" points="131.7,315 112.9,304.2 112.9,325.9 	"/>
	<polygon class="st0" points="112.9,325.9 131.7,336.8 131.7,315 	"/>
	<polygon class="st2" points="150.5,325.9 131.7,315 131.7,336.8 	"/>
	<polygon class="st2" points="150.5,304.2 169.3,315 169.3,293.3 	"/>
	<polygon class="st0" points="169.4,315 188.2,325.9 188.2,304.2 	"/>
	<polygon class="st2" points="188.2,304.2 169.3,293.3 169.3,315 	"/>
	<polygon class="st1" points="169.3,315 150.5,304.2 150.5,325.9 	"/>
	<polygon class="st1" points="150.5,325.9 169.3,336.8 169.3,315 	"/>
	<polygon class="st1" points="188.2,325.9 169.3,315 169.3,336.8 	"/>
	<polygon class="st2" points="188.2,304.2 207,315 207,293.3 	"/>
	<polygon class="st2" points="207,315 225.8,325.9 225.8,304.2 	"/>
	<polygon class="st3" points="225.8,304.2 207,293.3 207,315 	"/>
	<polygon class="st2" points="207,315 188.2,304.2 188.2,325.9 	"/>
	<polygon class="st0" points="188.2,325.9 207,336.8 207,315 	"/>
	<polygon class="st2" points="225.8,325.9 207,315 207,336.8 	"/>
	<polygon class="st2" points="225.8,304.2 244.6,315 244.6,293.3 	"/>
	<polygon class="st2" points="244.6,315 263.4,325.9 263.4,304.2 	"/>
	<polygon class="st2" points="263.4,304.2 244.6,293.3 244.6,315 	"/>
	<polygon class="st1" points="244.6,315 225.8,304.2 225.8,325.9 	"/>
	<polygon class="st2" points="225.8,325.9 244.6,336.8 244.6,315 	"/>
	<polygon class="st1" points="263.4,325.9 244.6,315 244.6,336.8 	"/>
	<polygon class="st1" points="263.4,304.2 282.2,315 282.2,293.3 	"/>
	<polygon class="st2" points="282.3,315 301.1,325.9 301.1,304.2 	"/>
	<polygon class="st3" points="301.1,304.2 282.2,293.3 282.2,315 	"/>
	<polygon class="st2" points="282.2,315 263.4,304.2 263.4,325.9 	"/>
	<polygon class="st1" points="263.4,325.9 282.2,336.8 282.2,315 	"/>
	<polygon class="st0" points="301.1,325.9 282.2,315 282.2,336.8 	"/>
	<polygon class="st2" points="301.1,304.2 319.9,315 319.9,293.3 	"/>
	<polygon class="st0" points="319.9,315 338.7,325.9 338.7,304.2 	"/>
	<polygon class="st3" points="338.7,304.2 319.9,293.3 319.9,315 	"/>
	<polygon class="st2" points="319.9,315 301.1,304.2 301.1,325.9 	"/>
	<polygon class="st3" points="301.1,325.9 319.9,336.8 319.9,315 	"/>
	<polygon class="st2" points="338.7,325.9 319.9,315 319.9,336.8 	"/>
	<polygon class="st0" points="338.7,304.2 357.5,315 357.5,293.3 	"/>
	<polygon class="st0" points="357.5,315 376.3,325.9 376.3,304.2 	"/>
	<polygon class="st2" points="376.3,304.2 357.5,293.3 357.5,315 	"/>
	<polygon class="st2" points="357.5,315 338.7,304.2 338.7,325.9 	"/>
	<polygon class="st0" points="338.7,325.9 357.5,336.8 357.5,315 	"/>
	<polygon class="st2" points="376.3,325.9 357.5,315 357.5,336.8 	"/>
	<polygon class="st2" points="376.3,304.2 395.1,315 395.1,293.3 	"/>
	<polygon class="st1" points="395.2,315 414,325.9 414,304.2 	"/>
	<polygon class="st2" points="414,304.2 395.1,293.3 395.1,315 	"/>
	<polygon class="st2" points="395.1,315 376.3,304.2 376.3,325.9 	"/>
	<polygon class="st0" points="376.3,325.9 395.1,336.8 395.1,315 	"/>
	<polygon class="st2" points="414,325.9 395.1,315 395.1,336.8 	"/>
	<polygon class="st0" points="414,304.2 432.8,315 432.8,293.3 	"/>
	<polygon class="st3" points="432.8,315 451.6,325.9 451.6,304.2 	"/>
	<polygon class="st2" points="451.6,304.2 432.8,293.3 432.8,315 	"/>
	<polygon class="st1" points="432.8,315 414,304.2 414,325.9 	"/>
	<polygon class="st2" points="414,325.9 432.8,336.8 432.8,315 	"/>
	<polygon class="st3" points="451.6,325.9 432.8,315 432.8,336.8 	"/>
</g>
</svg>
