<svg id="Layer_1" data-name="Layer 1" xmlns="http://www.w3.org/2000/svg" viewBox="0 0 460.66 320.72"><defs><style>.cls-1{fill:#b3b3b3;stroke:#fff;stroke-miterlimit:10;stroke-width:3px;}</style></defs><title>nube</title><path class="cls-1" d="M397.47,97.74c.21-2.47.34-5,.34-7.5a88.74,88.74,0,0,0-162.92-48.7,88.72,88.72,0,0,0-133.19,40A48.85,48.85,0,0,0,91,80.38c-31.46,0-57,29.92-57,66.83S59.58,214,91,214a49.72,49.72,0,0,0,23.22-5.8,41.55,41.55,0,0,0,55.39,49,88.76,88.76,0,0,0,166.72,7,88.75,88.75,0,1,0,61.1-166.49Z"/><ellipse class="cls-1" cx="43.58" cy="244.66" rx="16.08" ry="16"/><ellipse class="cls-1" cx="11.58" cy="273.66" rx="10.08" ry="10.03"/></svg>