<?xml version="1.0" encoding="utf-8"?>
<!-- Generator: Adobe Illustrator 22.0.0, SVG Export Plug-In . SVG Version: 6.00 Build 0)  -->
<svg version="1.1" id="Layer_1" xmlns="http://www.w3.org/2000/svg" xmlns:xlink="http://www.w3.org/1999/xlink" x="0px" y="0px"
	 viewBox="0 0 444 339.4" style="enable-background:new 0 0 444 339.4;" xml:space="preserve">
<style type="text/css">
	.st0{fill:#FFFFFF;}
	.st1{fill:#B3B3B3;stroke:#FFFFFF;stroke-width:3;stroke-miterlimit:10;}
</style>
<title>nube-02</title>
<circle class="st0" cx="52.5" cy="296" r="19.6"/>
<circle class="st0" cx="15.4" cy="324" r="13.9"/>
<path class="st1" d="M381.5,117.9c4.1-9,6.5-19,6.5-29.6c0-39.2-31.8-71-71-71c-17.6,0-33.7,6.4-46.1,17C265.1,15.6,247.6,2,227,2
	c-19.9,0-36.9,12.7-43.3,30.5c-21.2-5.9-44.8-3.1-64.9,9.6c-23.3,14.8-37.5,40.5-37.5,68.2c0,3.4,0.2,6.9,0.7,10.3
	c-31.2,4.4-52.9,33.2-48.6,64.3c3.2,23,19.8,41.1,41.3,47.1c-1.7,5.2-2.6,10.8-2.6,16.6c0,30.1,24.4,54.4,54.4,54.4
	c9.1,0,17.7-2.3,25.3-6.2c32,33.3,84.2,40.1,124.1,13.7c6.2-4.1,12-9,17.1-14.4c15,8.5,32,13,49.3,12.9c55.3,0,100-44.5,100-99.5
	C442.4,169.5,418.4,133.4,381.5,117.9z"/>
</svg>
