<svg id="Layer_1" data-name="Layer 1" xmlns="http://www.w3.org/2000/svg" viewBox="0 0 443.98 311.38"><defs><style>.cls-1{fill:#b3b3b3;stroke:#fff;stroke-miterlimit:10;stroke-width:3px;}</style></defs><title>nube-02</title><circle class="cls-1" cx="64.27" cy="261.47" r="19.63"/><circle class="cls-1" cx="15.36" cy="296.03" r="13.86"/><path class="cls-1" d="M380.74,89.56A85.23,85.23,0,0,0,230.27,39,80.74,80.74,0,0,0,81.35,82.25,81.48,81.48,0,0,0,82,92.55,57,57,0,0,0,89.85,206h0c0,.58,0,1.16,0,1.75A47.37,47.37,0,0,0,137.35,255c1.14,0,2.26-.05,3.38-.13a97.62,97.62,0,0,0,152.39,13.2A99.93,99.93,0,0,0,342.45,281c55.25,0,100-44.55,100-99.5A99.51,99.51,0,0,0,380.74,89.56Z"/></svg>