<?xml version="1.0" encoding="utf-8"?>
<!-- Generator: Adobe Illustrator 22.0.0, SVG Export Plug-In . SVG Version: 6.00 Build 0)  -->
<svg version="1.1" id="Layer_1" xmlns="http://www.w3.org/2000/svg" xmlns:xlink="http://www.w3.org/1999/xlink" x="0px" y="0px"
	 viewBox="0 0 452 394.4" style="enable-background:new 0 0 452 394.4;" xml:space="preserve">
<style type="text/css">
	.st0{fill:#FFFFFF;}
	.st1{fill:#8C8C8C;stroke:#FFFFFF;stroke-width:3;stroke-miterlimit:10;}
</style>
<title>nube-02</title>
<circle class="st0" cx="55.5" cy="347.6" r="13.5"/>
<circle class="st0" cx="26" cy="371" r="9.9"/>
<path class="st1" d="M447,133c0-43.1-34.9-78-78-78c-8.5,0-16.7,1.4-24.4,3.9C338.4,44.8,324.4,35,308,35c-1.8,0-3.5,0.1-5.2,0.4
	c-14.6-18-36.9-29.5-62-29.5c-30.2,0-56.5,16.8-70,41.5c-3.1-0.8-6.4-1.2-9.8-1.2c-20.1,0-36.7,15.1-39.2,34.6
	c-5.2-1.4-10.7-2.2-16.3-2.2C71,78.5,43,106.5,43,141c0,16.5,6.4,31.5,16.8,42.6c-18.6,11.5-29.6,33.3-26.4,56.3
	c3.2,23,19.8,41.1,41.3,47.1c-1.7,5.2-2.6,10.8-2.6,16.6c0,30.1,24.4,54.4,54.4,54.4c9.1,0,17.7-2.3,25.3-6.2
	c32,33.3,84.2,40.1,124.1,13.7c6.2-4.1,12-9,17.1-14.4c15,8.5,32,13,49.3,12.9c55.3,0,100-44.5,100-99.5c0.1-26-10.1-50.4-27.3-68.5
	C434.4,181.8,447,158.9,447,133z"/>
</svg>
